<svg width="49" height="47" viewBox="0 0 49 47" fill="none" xmlns="http://www.w3.org/2000/svg">
<g id="Frame 427321707">
<g id="Group 1759">
<path id="Vector" d="M29.4835 3.35217H32.9075V6.70321H29.4835V3.35217Z" fill="#FFDF22"/>
<path id="Vector_2" d="M29.4835 3.35217H32.9075V6.70321H29.4835V3.35217Z" fill="#FFDF22"/>
<path id="Vector_3" d="M32.9069 3.35217H36.3308V6.70321H32.9069V3.35217Z" fill="#FFDF22"/>
<path id="Vector_4" d="M36.331 3.35217H39.755V6.70321H36.331V3.35217Z" fill="#FCB400"/>
<path id="Vector_5" d="M26.0594 3.35217H29.4833V6.70321H26.0594V3.35217Z" fill="#FFDF22"/>
<path id="Vector_6" d="M22.6344 3.35217H26.0584V6.70321H22.6344V3.35217Z" fill="#FFDF22"/>
<path id="Vector_7" d="M19.2103 3.35217H22.6342V6.70321H19.2103V3.35217Z" fill="#FFDF22"/>
<path id="Vector_8" d="M15.7861 3.35217H19.2101V6.70321H15.7861V3.35217Z" fill="#FFF2B0"/>
<path id="Vector_9" d="M29.4835 6.70459H32.9075V10.0556H29.4835V6.70459Z" fill="#FCB400"/>
<path id="Vector_10" d="M29.4835 6.70459H32.9075V10.0556H29.4835V6.70459Z" fill="#FCB400"/>
<path id="Vector_11" d="M32.9069 6.70459H36.3308V10.0556H32.9069V6.70459Z" fill="#DB8C00"/>
<path id="Vector_12" d="M32.9069 10.0555H36.3308V13.4066H32.9069V10.0555Z" fill="#FCB400"/>
<path id="Vector_13" d="M26.0594 6.70459H29.4833V10.0556H26.0594V6.70459Z" fill="#FCB400"/>
<path id="Vector_14" d="M22.6344 6.70459H26.0584V10.0556H22.6344V6.70459Z" fill="#FCB400"/>
<path id="Vector_15" d="M19.2103 6.70459H22.6342V10.0556H19.2103V6.70459Z" fill="#FCB400"/>
<path id="Vector_16" d="M15.7861 6.70459H19.2101V10.0556H15.7861V6.70459Z" fill="#FCB400"/>
<path id="Vector_17" d="M12.3612 6.70459H15.7852V10.0556H12.3612V6.70459Z" fill="#FCB400"/>
<path id="Vector_18" d="M29.4835 13.4064H32.9075V16.7574H29.4835V13.4064Z" fill="#FFDF22"/>
<path id="Vector_19" d="M29.4835 13.4064H32.9075V16.7574H29.4835V13.4064Z" fill="#FFDF22"/>
<path id="Vector_20" d="M26.0594 13.4064H29.4833V16.7574H26.0594V13.4064Z" fill="#FFDF22"/>
<path id="Vector_21" d="M22.6344 13.4064H26.0584V16.7574H22.6344V13.4064Z" fill="#FFDF22"/>
<path id="Vector_22" d="M19.2103 13.4064H22.6342V16.7574H19.2103V13.4064Z" fill="#FFDF22"/>
<path id="Vector_23" d="M15.7861 13.4064H19.2101V16.7574H15.7861V13.4064Z" fill="#FFDF22"/>
<path id="Vector_24" d="M12.3612 10.0555H15.7852V13.4066H12.3612V10.0555Z" fill="#FFDF22"/>
<path id="Vector_25" d="M8.93708 10.0555H12.361V13.4066H8.93708V10.0555Z" fill="#DB8C00"/>
<path id="Vector_26" d="M5.51293 10.0555H8.93687V13.4066H5.51293V10.0555Z" fill="#FCB400"/>
<path id="Vector_27" d="M5.51293 13.4064H8.93687V16.7574H5.51293V13.4064Z" fill="#FCB400"/>
<path id="Vector_28" d="M8.93708 16.7573H12.361V20.1084H8.93708V16.7573Z" fill="#DB8C00"/>
<path id="Vector_29" d="M12.3612 13.4064H15.7852V16.7574H12.3612V13.4064Z" fill="#FFDF22"/>
<path id="Vector_30" d="M12.3612 16.7573H15.7852V20.1084H12.3612V16.7573Z" fill="#FFDF22"/>
<path id="Vector_31" d="M12.3612 20.1097H15.7852V23.4608H12.3612V20.1097Z" fill="#FFDF22"/>
<path id="Vector_32" d="M32.9069 10.0555H36.3308V13.4066H32.9069V10.0555Z" fill="#FCB400"/>
<path id="Vector_33" d="M36.331 10.0555H39.755V13.4066H36.331V10.0555Z" fill="#DB8C00"/>
<path id="Vector_34" d="M39.756 10.0555H43.1799V13.4066H39.756V10.0555Z" fill="#FCB400"/>
<path id="Vector_35" d="M39.756 13.4064H43.1799V16.7574H39.756V13.4064Z" fill="#FCB400"/>
<path id="Vector_36" d="M36.331 16.7573H39.755V20.1084H36.331V16.7573Z" fill="#DB8C00"/>
<path id="Vector_37" d="M32.9069 13.4064H36.3308V16.7574H32.9069V13.4064Z" fill="#FCB400"/>
<path id="Vector_38" d="M32.9069 16.7573H36.3308V20.1084H32.9069V16.7573Z" fill="#FCB400"/>
<path id="Vector_39" d="M32.9069 20.1097H36.3308V23.4608H32.9069V20.1097Z" fill="#FCB400"/>
<path id="Vector_40" d="M15.7861 13.4064H19.2101V16.7574H15.7861V13.4064Z" fill="#FFF2B0"/>
<path id="Vector_41" d="M15.7861 10.0555H19.2101V13.4066H15.7861V10.0555Z" fill="#FFDF22"/>
<path id="Vector_42" d="M29.4835 10.0555H32.9075V13.4066H29.4835V10.0555Z" fill="#FFDF22"/>
<path id="Vector_43" d="M29.4835 10.0555H32.9075V13.4066H29.4835V10.0555Z" fill="#FFDF22"/>
<path id="Vector_44" d="M26.0594 10.0555H29.4833V13.4066H26.0594V10.0555Z" fill="#FFDF22"/>
<path id="Vector_45" d="M22.6344 10.0555H26.0584V13.4066H22.6344V10.0555Z" fill="#FFDF22"/>
<path id="Vector_46" d="M19.2103 10.0555H22.6342V13.4066H19.2103V10.0555Z" fill="#FFDF22"/>
<path id="Vector_47" d="M15.7861 10.0555H19.2101V13.4066H15.7861V10.0555Z" fill="#FFF2B0"/>
<path id="Vector_48" d="M29.4835 16.7573H32.9075V20.1084H29.4835V16.7573Z" fill="#FFDF22"/>
<path id="Vector_49" d="M29.4835 16.7573H32.9075V20.1084H29.4835V16.7573Z" fill="#FFDF22"/>
<path id="Vector_50" d="M26.0594 16.7573H29.4833V20.1084H26.0594V16.7573Z" fill="#FFDF22"/>
<path id="Vector_51" d="M22.6344 16.7573H26.0584V20.1084H22.6344V16.7573Z" fill="#FFDF22"/>
<path id="Vector_52" d="M19.2103 16.7573H22.6342V20.1084H19.2103V16.7573Z" fill="#FFDF22"/>
<path id="Vector_53" d="M15.7861 16.7573H19.2101V20.1084H15.7861V16.7573Z" fill="#FFF2B0"/>
<path id="Vector_54" d="M29.4835 20.1097H32.9075V23.4608H29.4835V20.1097Z" fill="#FFDF22"/>
<path id="Vector_55" d="M29.4835 20.1097H32.9075V23.4608H29.4835V20.1097Z" fill="#FFDF22"/>
<path id="Vector_56" d="M26.0594 20.1097H29.4833V23.4608H26.0594V20.1097Z" fill="#FFDF22"/>
<path id="Vector_57" d="M22.6344 20.1097H26.0584V23.4608H22.6344V20.1097Z" fill="#FFDF22"/>
<path id="Vector_58" d="M19.2103 20.1097H22.6342V23.4608H19.2103V20.1097Z" fill="#FFF2B0"/>
<path id="Vector_59" d="M15.7861 20.1097H19.2101V23.4608H15.7861V20.1097Z" fill="#FFDF22"/>
<path id="Vector_60" d="M29.4835 23.4607H32.9075V26.8117H29.4835V23.4607Z" fill="#FFDF22"/>
<path id="Vector_61" d="M29.4835 23.4607H32.9075V26.8117H29.4835V23.4607Z" fill="#FCB400"/>
<path id="Vector_62" d="M26.0594 23.4607H29.4833V26.8117H26.0594V23.4607Z" fill="#FFDF22"/>
<path id="Vector_63" d="M22.6344 23.4607H26.0584V26.8117H22.6344V23.4607Z" fill="#FFDF22"/>
<path id="Vector_64" d="M19.2103 23.4607H22.6342V26.8117H19.2103V23.4607Z" fill="#FFDF22"/>
<path id="Vector_65" d="M26.0594 26.8116H29.4833V30.1627H26.0594V26.8116Z" fill="#FCB400"/>
<path id="Vector_66" d="M22.6344 26.8116H26.0584V30.1627H22.6344V26.8116Z" fill="#FFDF22"/>
<path id="Vector_67" d="M22.6344 30.1641H26.0584V33.5151H22.6344V30.1641Z" fill="#DDA300"/>
<path id="Vector_68" d="M19.2103 26.8116H22.6342V30.1627H19.2103V26.8116Z" fill="#FFDF22"/>
<path id="Vector_69" d="M26.0594 33.515H29.4833V36.8661H26.0594V33.515Z" fill="#FCB400"/>
<path id="Vector_70" d="M22.6344 33.515H26.0584V36.8661H22.6344V33.515Z" fill="#FFDF22"/>
<path id="Vector_71" d="M19.2103 33.515H22.6342V36.8661H19.2103V33.515Z" fill="#FFDF22"/>
<path id="Vector_72" d="M15.7861 23.4607H19.2101V26.8117H15.7861V23.4607Z" fill="#FFDF22"/>
<path id="Vector_73" d="M29.4835 36.8658H32.9075V40.2169H29.4835V36.8658Z" fill="#FCB400"/>
<path id="Vector_74" d="M26.0594 36.8658H29.4833V40.2169H26.0594V36.8658Z" fill="#FFDF22"/>
<path id="Vector_75" d="M22.6344 36.8658H26.0584V40.2169H22.6344V36.8658Z" fill="#FFDF22"/>
<path id="Vector_76" d="M19.2103 36.8658H22.6342V40.2169H19.2103V36.8658Z" fill="#FFF2B0"/>
<path id="Vector_77" d="M15.7861 36.8658H19.2101V40.2169H15.7861V36.8658Z" fill="#FFDF22"/>
<path id="Vector_78" d="M12.3612 3.35217H15.7852V6.70321H12.3612V3.35217Z" fill="#FFDF22"/>
<path id="Vector_79" d="M8.93708 3.35217H12.361V6.70321H8.93708V3.35217Z" fill="#FCB400"/>
<path id="Vector_80" d="M29.4835 0.0012207H32.9075V3.35226H29.4835V0.0012207Z" fill="#0F0F0F"/>
<path id="Vector_81" d="M29.4835 0.0012207H32.9075V3.35226H29.4835V0.0012207Z" fill="#0F0F0F"/>
<path id="Vector_82" d="M32.9069 0.0012207H36.3308V3.35226H32.9069V0.0012207Z" fill="#0F0F0F"/>
<path id="Vector_83" d="M36.331 0.0012207H39.755V3.35226H36.331V0.0012207Z" fill="#0F0F0F"/>
<path id="Vector_84" d="M26.0594 0.0012207H29.4833V3.35226H26.0594V0.0012207Z" fill="#0F0F0F"/>
<path id="Vector_85" d="M22.6344 0.0012207H26.0584V3.35226H22.6344V0.0012207Z" fill="#0F0F0F"/>
<path id="Vector_86" d="M19.2103 0.0012207H22.6342V3.35226H19.2103V0.0012207Z" fill="#0F0F0F"/>
<path id="Vector_87" d="M15.7861 0.0012207H19.2101V3.35226H15.7861V0.0012207Z" fill="#0F0F0F"/>
<path id="Vector_88" d="M12.3612 0.0012207H15.7852V3.35226H12.3612V0.0012207Z" fill="#0F0F0F"/>
<path id="Vector_89" d="M8.93708 0.0012207H12.361V3.35226H8.93708V0.0012207Z" fill="#0F0F0F"/>
<path id="Vector_90" d="M36.331 6.70459H39.755V10.0556H36.331V6.70459Z" fill="#0F0F0F"/>
<path id="Vector_91" d="M39.756 3.35217H43.1799V6.70321H39.756V3.35217Z" fill="#0F0F0F"/>
<path id="Vector_92" d="M8.93708 6.70459H12.361V10.0556H8.93708V6.70459Z" fill="#0F0F0F"/>
<path id="Vector_93" d="M36.331 13.4064H39.755V16.7574H36.331V13.4064Z" fill="#0F0F0F"/>
<path id="Vector_94" d="M8.93708 13.4064H12.361V16.7574H8.93708V13.4064Z" fill="#0F0F0F"/>
<path id="Vector_95" d="M36.331 20.1097H39.755V23.4608H36.331V20.1097Z" fill="#0F0F0F"/>
<path id="Vector_96" d="M39.756 16.7573H43.1799V20.1084H39.756V16.7573Z" fill="#0F0F0F"/>
<path id="Vector_97" d="M43.1801 13.4064H46.604V16.7574H43.1801V13.4064Z" fill="#0F0F0F"/>
<path id="Vector_98" d="M39.756 6.70459H43.1799V10.0556H39.756V6.70459Z" fill="#0F0F0F"/>
<path id="Vector_99" d="M43.1801 10.0555H46.604V13.4066H43.1801V10.0555Z" fill="#0F0F0F"/>
<path id="Vector_100" d="M32.9069 23.4607H36.3308V26.8117H32.9069V23.4607Z" fill="#0F0F0F"/>
<path id="Vector_101" d="M29.4835 26.8116H32.9075V30.1627H29.4835V26.8116Z" fill="#0F0F0F"/>
<path id="Vector_102" d="M26.0594 30.1641H29.4833V33.5151H26.0594V30.1641Z" fill="#0F0F0F"/>
<path id="Vector_103" d="M29.4835 40.2168H32.9075V43.5678H29.4835V40.2168Z" fill="#0F0F0F"/>
<path id="Vector_104" d="M26.0594 40.2168H29.4833V43.5678H26.0594V40.2168Z" fill="#0F0F0F"/>
<path id="Vector_105" d="M22.6344 40.2168H26.0584V43.5678H22.6344V40.2168Z" fill="#0F0F0F"/>
<path id="Vector_106" d="M19.2103 40.2168H22.6342V43.5678H19.2103V40.2168Z" fill="#0F0F0F"/>
<path id="Vector_107" d="M15.7861 40.2168H19.2101V43.5678H15.7861V40.2168Z" fill="#0F0F0F"/>
<path id="Vector_108" d="M8.93708 20.1097H12.361V23.4608H8.93708V20.1097Z" fill="#0F0F0F"/>
<path id="Vector_109" d="M5.51293 16.7573H8.93687V20.1084H5.51293V16.7573Z" fill="#0F0F0F"/>
<path id="Vector_110" d="M2.08956 13.4064H5.5135V16.7574H2.08956V13.4064Z" fill="#0F0F0F"/>
<path id="Vector_111" d="M2.08956 10.0555H5.5135V13.4066H2.08956V10.0555Z" fill="#0F0F0F"/>
<path id="Vector_112" d="M5.51293 6.70459H8.93687V10.0556H5.51293V6.70459Z" fill="#0F0F0F"/>
<path id="Vector_113" d="M12.3612 23.4607H15.7852V26.8117H12.3612V23.4607Z" fill="#0F0F0F"/>
<path id="Vector_114" d="M15.7861 26.8116H19.2101V30.1627H15.7861V26.8116Z" fill="#0F0F0F"/>
<path id="Vector_115" d="M19.2103 30.1641H22.6342V33.5151H19.2103V30.1641Z" fill="#0F0F0F"/>
<path id="Vector_116" d="M22.6344 33.515H26.0584V36.8661H22.6344V33.515Z" fill="#DDA300"/>
<path id="Vector_117" d="M26.0594 36.8658H29.4833V40.2169H26.0594V36.8658Z" fill="#FCB400"/>
<path id="Vector_118" d="M22.6344 36.8658H26.0584V40.2169H22.6344V36.8658Z" fill="#FFDF22"/>
<path id="Vector_119" d="M19.2103 36.8658H22.6342V40.2169H19.2103V36.8658Z" fill="#FFDF22"/>
<path id="Vector_120" d="M29.4835 40.2168H32.9075V43.5678H29.4835V40.2168Z" fill="#FCB400"/>
<path id="Vector_121" d="M26.0594 40.2168H29.4833V43.5678H26.0594V40.2168Z" fill="#FFDF22"/>
<path id="Vector_122" d="M22.6344 40.2168H26.0584V43.5678H22.6344V40.2168Z" fill="#FFDF22"/>
<path id="Vector_123" d="M19.2103 40.2168H22.6342V43.5678H19.2103V40.2168Z" fill="#FFF2B0"/>
<path id="Vector_124" d="M15.7861 40.2168H19.2101V43.5678H15.7861V40.2168Z" fill="#FFDF22"/>
<path id="Vector_125" d="M26.0594 33.515H29.4833V36.8661H26.0594V33.515Z" fill="#0F0F0F"/>
<path id="Vector_126" d="M29.4835 36.8658H32.9075V40.2169H29.4835V36.8658Z" fill="#0F0F0F"/>
<path id="Vector_127" d="M32.9069 40.2168H36.3308V43.5678H32.9069V40.2168Z" fill="#0F0F0F"/>
<path id="Vector_128" d="M29.4835 43.5677H32.9075V46.9188H29.4835V43.5677Z" fill="#0F0F0F"/>
<path id="Vector_129" d="M26.0594 43.5677H29.4833V46.9188H26.0594V43.5677Z" fill="#0F0F0F"/>
<path id="Vector_130" d="M22.6344 43.5677H26.0584V46.9188H22.6344V43.5677Z" fill="#0F0F0F"/>
<path id="Vector_131" d="M19.2103 43.5677H22.6342V46.9188H19.2103V43.5677Z" fill="#0F0F0F"/>
<path id="Vector_132" d="M15.7861 43.5677H19.2101V46.9188H15.7861V43.5677Z" fill="#0F0F0F"/>
<path id="Vector_133" d="M19.2103 33.515H22.6342V36.8661H19.2103V33.515Z" fill="#0F0F0F"/>
<path id="Vector_134" d="M15.7861 36.8658H19.2101V40.2169H15.7861V36.8658Z" fill="#0F0F0F"/>
<path id="Vector_135" d="M12.3612 40.2168H15.7852V43.5678H12.3612V40.2168Z" fill="#0F0F0F"/>
<path id="Vector_136" d="M32.9069 43.5677H36.3308V46.9188H32.9069V43.5677Z" fill="#0F0F0F"/>
<path id="Vector_137" d="M12.3612 43.5677H15.7852V46.9188H12.3612V43.5677Z" fill="#0F0F0F"/>
<path id="Vector_138" d="M5.51293 3.35217H8.93687V6.70321H5.51293V3.35217Z" fill="#0F0F0F"/>
</g>
<g id="Group 1757">
<path id="Vector_139" d="M48.5905 37.8296H45.5105V40.8595H48.5905V37.8296Z" fill="#A7ED00"/>
<path id="Vector_140" d="M45.511 43.8884H42.431V46.9184H45.511V43.8884Z" fill="#A7ED00"/>
<path id="Vector_141" d="M45.511 37.8296H42.431V40.8595H45.511V37.8296Z" fill="#4AB907"/>
<path id="Vector_142" d="M45.511 34.7994H42.431V37.8294H45.511V34.7994Z" fill="#A7ED00"/>
<path id="Vector_143" d="M42.4308 43.8884H39.3508V46.9184H42.4308V43.8884Z" fill="#4AB907"/>
<path id="Vector_144" d="M42.4308 40.8583H39.3508V43.8882H42.4308V40.8583Z" fill="#A7ED00"/>
<path id="Vector_145" d="M39.3505 43.8884H36.2705V46.9184H39.3505V43.8884Z" fill="#4AB907"/>
<path id="Vector_146" d="M39.3505 40.8583H36.2705V43.8882H39.3505V40.8583Z" fill="#4AB907"/>
<path id="Vector_147" d="M39.3505 37.8296H36.2705V40.8595H39.3505V37.8296Z" fill="#A7ED00"/>
</g>
<g id="Group 1758">
<path id="Vector_148" d="M0.499999 37.8296H3.58V40.8595H0.499999V37.8296Z" fill="#A7ED00"/>
<path id="Vector_149" d="M3.57948 43.8884H6.65948V46.9184H3.57948V43.8884Z" fill="#A7ED00"/>
<path id="Vector_150" d="M3.57948 37.8296H6.65948V40.8595H3.57948V37.8296Z" fill="#4AB907"/>
<path id="Vector_151" d="M3.57948 34.7994H6.65948V37.8294H3.57948V34.7994Z" fill="#A7ED00"/>
<path id="Vector_152" d="M6.65974 43.8884H9.73975V46.9184H6.65974V43.8884Z" fill="#4AB907"/>
<path id="Vector_153" d="M6.65974 40.8583H9.73975V43.8882H6.65974V40.8583Z" fill="#A7ED00"/>
<path id="Vector_154" d="M9.74 43.8884H12.82V46.9184H9.74V43.8884Z" fill="#4AB907"/>
<path id="Vector_155" d="M9.74 40.8583H12.82V43.8882H9.74V40.8583Z" fill="#4AB907"/>
<path id="Vector_156" d="M9.74 37.8296H12.82V40.8595H9.74V37.8296Z" fill="#A7ED00"/>
</g>
</g>
</svg>
