<svg width="12" height="12" viewBox="0 0 12 12" fill="none" xmlns="http://www.w3.org/2000/svg">
<g id="copy-03" clip-path="url(#clip0_236_19978)">
<path id="Icon" d="M4 4V2.6C4 2.03995 4 1.75992 4.10899 1.54601C4.20487 1.35785 4.35785 1.20487 4.54601 1.10899C4.75992 1 5.03995 1 5.6 1H9.4C9.96005 1 10.2401 1 10.454 1.10899C10.6422 1.20487 10.7951 1.35785 10.891 1.54601C11 1.75992 11 2.03995 11 2.6V6.4C11 6.96005 11 7.24008 10.891 7.45399C10.7951 7.64215 10.6422 7.79513 10.454 7.89101C10.2401 8 9.96005 8 9.4 8H8M2.6 11H6.4C6.96005 11 7.24008 11 7.45399 10.891C7.64215 10.7951 7.79513 10.6422 7.89101 10.454C8 10.2401 8 9.96005 8 9.4V5.6C8 5.03995 8 4.75992 7.89101 4.54601C7.79513 4.35785 7.64215 4.20487 7.45399 4.10899C7.24008 4 6.96005 4 6.4 4H2.6C2.03995 4 1.75992 4 1.54601 4.10899C1.35785 4.20487 1.20487 4.35785 1.10899 4.54601C1 4.75992 1 5.03995 1 5.6V9.4C1 9.96005 1 10.2401 1.10899 10.454C1.20487 10.6422 1.35785 10.7951 1.54601 10.891C1.75992 11 2.03995 11 2.6 11Z" stroke="#909090" stroke-width="1.3" stroke-linecap="round" stroke-linejoin="round"/>
</g>
<defs>
<clipPath id="clip0_236_19978">
<rect width="12" height="12" fill="white"/>
</clipPath>
</defs>
</svg>
