<svg width="14" height="14" viewBox="0 0 14 14" fill="none" xmlns="http://www.w3.org/2000/svg">
<g id="ArrowUpRight">
<path id="Vector" d="M2.96412 9.9639L2.96413 9.96389L8.67283 4.25625H4.81272C4.61215 4.25625 4.4198 4.17657 4.27797 4.03475C4.13615 3.89293 4.05647 3.70057 4.05647 3.5C4.05647 3.29943 4.13615 3.10707 4.27797 2.96525C4.4198 2.82343 4.61215 2.74375 4.81272 2.74375H10.5002C10.7008 2.74375 10.8931 2.82343 11.035 2.96525L10.9647 3.03548L11.035 2.96525C11.1768 3.10707 11.2565 3.29943 11.2565 3.5V9.1875C11.2565 9.38807 11.1768 9.58042 11.035 9.72225C10.8931 9.86407 10.7008 9.94375 10.5002 9.94375C10.2997 9.94375 10.1073 9.86407 9.96547 9.72225C9.82365 9.58042 9.74397 9.38807 9.74397 9.1875V5.32733L4.03523 11.035C4.03523 11.035 4.03522 11.035 4.03522 11.035C3.89318 11.177 3.70054 11.2568 3.49967 11.2568C3.2988 11.2568 3.10616 11.177 2.96412 11.035M2.96412 9.9639L2.96412 11.035M2.96412 9.9639C2.82208 10.1059 2.74229 10.2986 2.74229 10.4995C2.74229 10.7003 2.82208 10.893 2.96412 11.035M2.96412 9.9639L2.96412 11.035" fill="#363C60" stroke="#363C60" stroke-width="0.2"/>
</g>
</svg>
