<svg width="20" height="20" viewBox="0 0 20 20" fill="none" xmlns="http://www.w3.org/2000/svg">
<g id="ic_ecosystem" clip-path="url(#clip0_426_38613)">
<path id="Icon" d="M2.56316 6.23552L6.13652 8.78788C6.32246 8.92069 6.41543 8.9871 6.51273 9.0024C6.59835 9.01586 6.68603 9.0023 6.76357 8.96358C6.8517 8.91959 6.92025 8.82819 7.05735 8.64539L7.81243 7.6386C7.8512 7.58691 7.87059 7.56106 7.89337 7.53876C7.9136 7.51897 7.9358 7.50128 7.95962 7.48598C7.98644 7.46876 8.01596 7.45563 8.07501 7.42939L11.2988 5.99658C11.4325 5.93718 11.4993 5.90749 11.5497 5.86111C11.5942 5.82009 11.6293 5.76984 11.6525 5.71387C11.6787 5.65059 11.6835 5.57763 11.6933 5.43172L11.9293 1.89101M11.2498 11.2498L13.4298 12.1841C13.6828 12.2925 13.8092 12.3467 13.8762 12.4368C13.935 12.5157 13.9639 12.613 13.9578 12.7112C13.9509 12.8232 13.8746 12.9377 13.7219 13.1667L12.6977 14.703C12.6254 14.8115 12.5892 14.8658 12.5414 14.9051C12.4991 14.9399 12.4503 14.966 12.3979 14.9819C12.3387 14.9999 12.2735 14.9999 12.143 14.9999H10.4803C10.3076 14.9999 10.2212 14.9999 10.1477 14.9709C10.0827 14.9454 10.0253 14.904 9.98052 14.8505C9.92985 14.7899 9.90253 14.7079 9.84789 14.544L9.25383 12.7618C9.2216 12.6651 9.20549 12.6168 9.20124 12.5677C9.19748 12.5241 9.2006 12.4802 9.21049 12.4376C9.22163 12.3896 9.24442 12.344 9.29 12.2528L9.74126 11.3503C9.83295 11.167 9.87879 11.0753 9.9494 11.0183C10.0116 10.9682 10.087 10.937 10.1664 10.9284C10.2566 10.9188 10.3539 10.9512 10.5484 11.016L11.2498 11.2498ZM18.3332 9.99984C18.3332 14.6022 14.6022 18.3332 9.99984 18.3332C5.39746 18.3332 1.6665 14.6022 1.6665 9.99984C1.6665 5.39746 5.39746 1.6665 9.99984 1.6665C14.6022 1.6665 18.3332 5.39746 18.3332 9.99984Z" stroke="#363C60" stroke-width="1.5" stroke-linecap="round" stroke-linejoin="round"/>
</g>
<defs>
<clipPath id="clip0_426_38613">
<rect width="20" height="20" fill="white"/>
</clipPath>
</defs>
</svg>
