<svg width="20" height="20" viewBox="0 0 20 20" fill="none" xmlns="http://www.w3.org/2000/svg">
<g id="logo_firmachain">
<g id="&#234;&#183;&#184;&#235;&#163;&#185; 30943">
<path id="&#237;&#140;&#168;&#236;&#138;&#164; 1" d="M11.6493 8.99619L11.7253 8.95277L11.6493 8.90935L10.0989 8.02372L10.0741 8.00955L10.0493 8.02373L8.12949 9.12062L8.1043 9.13501V9.16403V14.7856V14.8147L8.12961 14.8291L10.0494 15.919L10.0741 15.933L10.0988 15.919L15.0451 13.1047L15.119 13.0626L15.0463 13.0185L13.5436 12.1056L13.5184 12.0903L13.4929 12.1049L10.0741 14.0537L9.74139 13.8639V10.0857L11.6493 8.99619Z" fill="#FAA31A" stroke="#FAA31A" stroke-width="0.1"/>
<path id="&#237;&#140;&#168;&#236;&#138;&#164; 2" d="M10.0992 0.956551L10.0744 0.942459L10.0497 0.956554L1.97525 5.55609L1.95 5.57047V5.59953V14.8126V14.8417L1.97532 14.8561L3.51241 15.7284L3.58709 15.7708V15.6849V6.52121L10.0744 2.82254L12.9934 4.49148L13.053 4.52551L13.0672 4.45844L13.4022 2.87746L13.4098 2.84172L13.378 2.82365L10.0992 0.956551Z" fill="#FAA31A" stroke="#FAA31A" stroke-width="0.1"/>
<path id="&#237;&#140;&#168;&#236;&#138;&#164; 3" d="M16.5876 6.4561L16.5625 6.47053V6.49941V13.8912L10.0752 17.5899L6.66061 15.6422V8.3067L10.0745 6.35898L13.513 8.31413L13.5376 8.32817L13.5624 8.31415L15.0994 7.44182L15.1248 7.42745V7.39833V7.38714V7.35808L15.0995 7.34369L10.0992 4.49513L10.0745 4.48103L10.0497 4.49513L5.04947 7.34369L5.02422 7.35808V7.38714V16.5638V16.5929L5.04947 16.6073L10.0497 19.4558L10.0745 19.4699L10.0992 19.4558L18.1737 14.8563L18.1989 14.8419V14.8129V5.61308V5.52651L18.124 5.56977L16.5876 6.4561Z" fill="#FAA31A" stroke="#FAA31A" stroke-width="0.1"/>
</g>
</g>
</svg>
