<svg width="49" height="42" viewBox="0 0 49 42" fill="none" xmlns="http://www.w3.org/2000/svg">
<g id="_&#195;&#142;&#195;&#147;&#195;&#136;_1" clip-path="url(#clip0_1_49598)">
<path id="Vector" d="M10.7859 3.23047H7.35764V6.46091H10.7859V3.23047Z" fill="#B75F16"/>
<path id="Vector_2" d="M14.2141 3.23047H10.7859V6.46091H14.2141V3.23047Z" fill="#B75F16"/>
<path id="Vector_3" d="M17.6424 3.23047H14.2141V6.46091H17.6424V3.23047Z" fill="#B75F16"/>
<path id="Vector_4" d="M21.0706 3.23047H17.6424V6.46091H21.0706V3.23047Z" fill="#B75F16"/>
<path id="Vector_5" d="M24.5 3.23047H21.0717V6.46091H24.5V3.23047Z" fill="#B75F16"/>
<path id="Vector_6" d="M27.9282 3.23047H24.5V6.46091H27.9282V3.23047Z" fill="#B75F16"/>
<path id="Vector_7" d="M31.3565 3.23047H27.9283V6.46091H31.3565V3.23047Z" fill="#B75F16"/>
<path id="Vector_8" d="M34.7859 3.23047H31.3576V6.46091H34.7859V3.23047Z" fill="#B75F16"/>
<path id="Vector_9" d="M41.6424 3.23047H38.2141V6.46091H41.6424V3.23047Z" fill="#B75F16"/>
<path id="Vector_10" d="M7.3565 9.69238H3.92825V12.9228H7.3565V9.69238Z" fill="#FFC82E"/>
<path id="Vector_11" d="M10.7859 9.69238H7.35764V12.9228H10.7859V9.69238Z" fill="#8C3C00"/>
<path id="Vector_12" d="M14.2141 9.69238H10.7859V12.9228H14.2141V9.69238Z" fill="#8C3C00"/>
<path id="Vector_13" d="M17.6424 9.69238H14.2141V12.9228H17.6424V9.69238Z" fill="#8C3C00"/>
<path id="Vector_14" d="M21.0706 9.69238H17.6424V12.9228H21.0706V9.69238Z" fill="#8C3C00"/>
<path id="Vector_15" d="M24.5 9.69238H21.0717V12.9228H24.5V9.69238Z" fill="#8C3C00"/>
<path id="Vector_16" d="M27.9282 9.69238H24.5V12.9228H27.9282V9.69238Z" fill="#8C3C00"/>
<path id="Vector_17" d="M31.3565 9.69238H27.9283V12.9228H31.3565V9.69238Z" fill="#8C3C00"/>
<path id="Vector_18" d="M34.7859 9.69238H31.3576V12.9228H34.7859V9.69238Z" fill="#8C3C00"/>
<path id="Vector_19" d="M41.6424 9.69238H38.2141V12.9228H41.6424V9.69238Z" fill="#FFC82E"/>
<path id="Vector_20" d="M7.3565 12.9229H3.92825V16.1533H7.3565V12.9229Z" fill="#FFC82E"/>
<path id="Vector_21" d="M10.7859 12.9229H7.35764V16.1533H10.7859V12.9229Z" fill="#7F3300"/>
<path id="Vector_22" d="M14.2141 12.9229H10.7859V16.1533H14.2141V12.9229Z" fill="#7F3300"/>
<path id="Vector_23" d="M17.6424 12.9229H14.2141V16.1533H17.6424V12.9229Z" fill="#7F3300"/>
<path id="Vector_24" d="M21.0706 12.9229H17.6424V16.1533H21.0706V12.9229Z" fill="#7F3300"/>
<path id="Vector_25" d="M24.5 12.9229H21.0717V16.1533H24.5V12.9229Z" fill="#FFEB57"/>
<path id="Vector_26" d="M27.9282 12.9229H24.5V16.1533H27.9282V12.9229Z" fill="#FFEB57"/>
<path id="Vector_27" d="M31.3565 12.9229H27.9283V16.1533H31.3565V12.9229Z" fill="#7F3300"/>
<path id="Vector_28" d="M34.7859 12.9229H31.3576V16.1533H34.7859V12.9229Z" fill="#7F3300"/>
<path id="Vector_29" d="M41.6424 12.9229H38.2141V16.1533H41.6424V12.9229Z" fill="#FFC82E"/>
<path id="Vector_30" d="M7.3565 16.1533H3.92825V19.3838H7.3565V16.1533Z" fill="#C67500"/>
<path id="Vector_31" d="M10.7859 16.1533H7.35764V19.3838H10.7859V16.1533Z" fill="#FFC82E"/>
<path id="Vector_32" d="M14.2141 16.1533H10.7859V19.3838H14.2141V16.1533Z" fill="#FFC82E"/>
<path id="Vector_33" d="M17.6424 16.1533H14.2141V19.3838H17.6424V16.1533Z" fill="#FFC82E"/>
<path id="Vector_34" d="M21.0706 16.1533H17.6424V19.3838H21.0706V16.1533Z" fill="#E09628"/>
<path id="Vector_35" d="M24.5 16.1533H21.0717V19.3838H24.5V16.1533Z" fill="#FFC82E"/>
<path id="Vector_36" d="M27.9282 16.1533H24.5V19.3838H27.9282V16.1533Z" fill="#FFEB57"/>
<path id="Vector_37" d="M31.3565 16.1533H27.9283V19.3838H31.3565V16.1533Z" fill="#F4AE00"/>
<path id="Vector_38" d="M34.7859 16.1533H31.3576V19.3838H34.7859V16.1533Z" fill="#FFC82E"/>
<path id="Vector_39" d="M41.6424 16.1533H38.2141V19.3838H41.6424V16.1533Z" fill="#FFC82E"/>
<path id="Vector_40" d="M7.3565 19.3848H3.92825V22.6152H7.3565V19.3848Z" fill="#C67500"/>
<path id="Vector_41" d="M10.7859 19.3848H7.35764V22.6152H10.7859V19.3848Z" fill="#6B2B00"/>
<path id="Vector_42" d="M14.2141 19.3848H10.7859V22.6152H14.2141V19.3848Z" fill="#6B2B00"/>
<path id="Vector_43" d="M17.6424 19.3848H14.2141V22.6152H17.6424V19.3848Z" fill="#6B2B00"/>
<path id="Vector_44" d="M21.0706 19.3848H17.6424V22.6152H21.0706V19.3848Z" fill="#6B2B00"/>
<path id="Vector_45" d="M24.5 19.3848H21.0717V22.6152H24.5V19.3848Z" fill="#FFC82E"/>
<path id="Vector_46" d="M27.9282 19.3848H24.5V22.6152H27.9282V19.3848Z" fill="#FFC82E"/>
<path id="Vector_47" d="M31.3565 19.3848H27.9283V22.6152H31.3565V19.3848Z" fill="#6B2B00"/>
<path id="Vector_48" d="M34.7859 19.3848H31.3576V22.6152H34.7859V19.3848Z" fill="#6B2B00"/>
<path id="Vector_49" d="M41.6424 19.3848H38.2141V22.6152H41.6424V19.3848Z" fill="#FFC82E"/>
<path id="Vector_50" d="M7.3565 22.6152H3.92825V25.8457H7.3565V22.6152Z" fill="#C67500"/>
<path id="Vector_51" d="M10.7859 22.6152H7.35764V25.8457H10.7859V22.6152Z" fill="#994E04"/>
<path id="Vector_52" d="M14.2141 22.6152H10.7859V25.8457H14.2141V22.6152Z" fill="#994E04"/>
<path id="Vector_53" d="M17.6424 22.6152H14.2141V25.8457H17.6424V22.6152Z" fill="#994E04"/>
<path id="Vector_54" d="M21.0706 22.6152H17.6424V25.8457H21.0706V22.6152Z" fill="#994E04"/>
<path id="Vector_55" d="M24.5 22.6152H21.0717V25.8457H24.5V22.6152Z" fill="#6B2B00"/>
<path id="Vector_56" d="M27.9282 22.6152H24.5V25.8457H27.9282V22.6152Z" fill="#6B2B00"/>
<path id="Vector_57" d="M31.3565 22.6152H27.9283V25.8457H31.3565V22.6152Z" fill="#994E04"/>
<path id="Vector_58" d="M34.7859 22.6152H31.3576V25.8457H34.7859V22.6152Z" fill="#994E04"/>
<path id="Vector_59" d="M41.6424 22.6152H38.2141V25.8457H41.6424V22.6152Z" fill="#FFC82E"/>
<path id="Vector_60" d="M7.3565 29.076H3.92825V32.3065H7.3565V29.076Z" fill="#C67500"/>
<path id="Vector_61" d="M10.7859 29.076H7.35764V32.3065H10.7859V29.076Z" fill="#8C3C00"/>
<path id="Vector_62" d="M14.2141 29.076H10.7859V32.3065H14.2141V29.076Z" fill="#8C3C00"/>
<path id="Vector_63" d="M17.6424 29.076H14.2141V32.3065H17.6424V29.076Z" fill="#8C3C00"/>
<path id="Vector_64" d="M21.0706 29.076H17.6424V32.3065H21.0706V29.076Z" fill="#8C3C00"/>
<path id="Vector_65" d="M24.5 29.076H21.0717V32.3065H24.5V29.076Z" fill="#8C3C00"/>
<path id="Vector_66" d="M27.9282 29.076H24.5V32.3065H27.9282V29.076Z" fill="#8C3C00"/>
<path id="Vector_67" d="M31.3565 29.076H27.9283V32.3065H31.3565V29.076Z" fill="#8C3C00"/>
<path id="Vector_68" d="M34.7859 29.076H31.3576V32.3065H34.7859V29.076Z" fill="#8C3C00"/>
<path id="Vector_69" d="M41.6424 29.076H38.2141V32.3065H41.6424V29.076Z" fill="#FFC82E"/>
<path id="Vector_70" d="M7.3565 32.3076H3.92825V35.5381H7.3565V32.3076Z" fill="#FFEB57"/>
<path id="Vector_71" d="M10.7859 32.3076H7.35764V35.5381H10.7859V32.3076Z" fill="#994E04"/>
<path id="Vector_72" d="M14.2141 32.3076H10.7859V35.5381H14.2141V32.3076Z" fill="#994E04"/>
<path id="Vector_73" d="M17.6424 32.3076H14.2141V35.5381H17.6424V32.3076Z" fill="#994E04"/>
<path id="Vector_74" d="M21.0706 32.3076H17.6424V35.5381H21.0706V32.3076Z" fill="#994E04"/>
<path id="Vector_75" d="M24.5 32.3076H21.0717V35.5381H24.5V32.3076Z" fill="#994E04"/>
<path id="Vector_76" d="M27.9282 32.3076H24.5V35.5381H27.9282V32.3076Z" fill="#994E04"/>
<path id="Vector_77" d="M31.3565 32.3076H27.9283V35.5381H31.3565V32.3076Z" fill="#994E04"/>
<path id="Vector_78" d="M34.7859 32.3076H31.3576V35.5381H34.7859V32.3076Z" fill="#994E04"/>
<path id="Vector_79" d="M41.6424 32.3076H38.2141V35.5381H41.6424V32.3076Z" fill="#8C3C00"/>
<path id="Vector_80" d="M7.3565 35.5381H3.92825V38.7685H7.3565V35.5381Z" fill="#FFC82E"/>
<path id="Vector_81" d="M10.7859 35.5381H7.35764V38.7685H10.7859V35.5381Z" fill="#FFEB57"/>
<path id="Vector_82" d="M14.2141 35.5381H10.7859V38.7685H14.2141V35.5381Z" fill="#8C3C00"/>
<path id="Vector_83" d="M17.6424 35.5381H14.2141V38.7685H17.6424V35.5381Z" fill="#8C3C00"/>
<path id="Vector_84" d="M21.0706 35.5381H17.6424V38.7685H21.0706V35.5381Z" fill="#8C3C00"/>
<path id="Vector_85" d="M24.5 35.5381H21.0717V38.7685H24.5V35.5381Z" fill="#8C3C00"/>
<path id="Vector_86" d="M27.9282 35.5381H24.5V38.7685H27.9282V35.5381Z" fill="#8C3C00"/>
<path id="Vector_87" d="M31.3565 35.5381H27.9283V38.7685H31.3565V35.5381Z" fill="#8C3C00"/>
<path id="Vector_88" d="M34.7859 35.5381H31.3576V38.7685H34.7859V35.5381Z" fill="#8C3C00"/>
<path id="Vector_89" d="M41.6424 35.5381H38.2141V38.7685H41.6424V35.5381Z" fill="#8C3C00"/>
<path id="Vector_90" d="M7.3565 6.46191H3.92825V9.69235H7.3565V6.46191Z" fill="#FFC82E"/>
<path id="Vector_91" d="M3.92825 9.69238H0.5V12.9228H3.92825V9.69238Z" fill="#0F0F0F"/>
<path id="Vector_92" d="M3.92825 12.9229H0.5V16.1533H3.92825V12.9229Z" fill="#0F0F0F"/>
<path id="Vector_93" d="M3.92825 16.1533H0.5V19.3838H3.92825V16.1533Z" fill="#0F0F0F"/>
<path id="Vector_94" d="M3.92825 19.3848H0.5V22.6152H3.92825V19.3848Z" fill="#0F0F0F"/>
<path id="Vector_95" d="M3.92825 22.6152H0.5V25.8457H3.92825V22.6152Z" fill="#0F0F0F"/>
<path id="Vector_96" d="M3.92825 29.076H0.5V32.3065H3.92825V29.076Z" fill="#0F0F0F"/>
<path id="Vector_97" d="M3.92825 32.3076H0.5V35.5381H3.92825V32.3076Z" fill="#0F0F0F"/>
<path id="Vector_98" d="M3.92825 35.5381H0.5V38.7685H3.92825V35.5381Z" fill="#0F0F0F"/>
<path id="Vector_99" d="M3.92825 6.46191H0.5V9.69235H3.92825V6.46191Z" fill="#0F0F0F"/>
<path id="Vector_100" d="M48.4989 9.69238H45.0706V12.9228H48.4989V9.69238Z" fill="#0F0F0F"/>
<path id="Vector_101" d="M48.4989 12.9229H45.0706V16.1533H48.4989V12.9229Z" fill="#0F0F0F"/>
<path id="Vector_102" d="M48.4989 16.1533H45.0706V19.3838H48.4989V16.1533Z" fill="#0F0F0F"/>
<path id="Vector_103" d="M48.4989 19.3848H45.0706V22.6152H48.4989V19.3848Z" fill="#0F0F0F"/>
<path id="Vector_104" d="M48.4989 22.6152H45.0706V25.8457H48.4989V22.6152Z" fill="#0F0F0F"/>
<path id="Vector_105" d="M48.4989 29.076H45.0706V32.3065H48.4989V29.076Z" fill="#0F0F0F"/>
<path id="Vector_106" d="M48.4989 32.3076H45.0706V35.5381H48.4989V32.3076Z" fill="#0F0F0F"/>
<path id="Vector_107" d="M48.4989 35.5381H45.0706V38.7685H48.4989V35.5381Z" fill="#0F0F0F"/>
<path id="Vector_108" d="M48.4989 6.46191H45.0706V9.69235H48.4989V6.46191Z" fill="#0F0F0F"/>
<path id="Vector_109" d="M10.7859 6.46191H7.35764V9.69235H10.7859V6.46191Z" fill="#994E04"/>
<path id="Vector_110" d="M14.2141 6.46191H10.7859V9.69235H14.2141V6.46191Z" fill="#994E04"/>
<path id="Vector_111" d="M17.6424 6.46191H14.2141V9.69235H17.6424V6.46191Z" fill="#994E04"/>
<path id="Vector_112" d="M21.0706 6.46191H17.6424V9.69235H21.0706V6.46191Z" fill="#994E04"/>
<path id="Vector_113" d="M24.5 6.46191H21.0717V9.69235H24.5V6.46191Z" fill="#994E04"/>
<path id="Vector_114" d="M27.9282 6.46191H24.5V9.69235H27.9282V6.46191Z" fill="#994E04"/>
<path id="Vector_115" d="M31.3565 6.46191H27.9283V9.69235H31.3565V6.46191Z" fill="#994E04"/>
<path id="Vector_116" d="M34.7859 6.46191H31.3576V9.69235H34.7859V6.46191Z" fill="#994E04"/>
<path id="Vector_117" d="M38.2141 3.23047H34.7859V6.46091H38.2141V3.23047Z" fill="#B75F16"/>
<path id="Vector_118" d="M38.2141 9.69238H34.7859V12.9228H38.2141V9.69238Z" fill="#8C3C00"/>
<path id="Vector_119" d="M38.2141 12.9229H34.7859V16.1533H38.2141V12.9229Z" fill="#7F3300"/>
<path id="Vector_120" d="M38.2141 16.1533H34.7859V19.3838H38.2141V16.1533Z" fill="#FFC82E"/>
<path id="Vector_121" d="M38.2141 19.3848H34.7859V22.6152H38.2141V19.3848Z" fill="#6B2B00"/>
<path id="Vector_122" d="M38.2141 22.6152H34.7859V25.8457H38.2141V22.6152Z" fill="#994E04"/>
<path id="Vector_123" d="M38.2141 29.076H34.7859V32.3065H38.2141V29.076Z" fill="#8C3C00"/>
<path id="Vector_124" d="M38.2141 32.3076H34.7859V35.5381H38.2141V32.3076Z" fill="#994E04"/>
<path id="Vector_125" d="M38.2141 35.5381H34.7859V38.7685H38.2141V35.5381Z" fill="#8C3C00"/>
<path id="Vector_126" d="M38.2141 6.46191H34.7859V9.69235H38.2141V6.46191Z" fill="#994E04"/>
<path id="Vector_127" d="M41.6424 6.46191H38.2141V9.69235H41.6424V6.46191Z" fill="#994E04"/>
<path id="Vector_128" d="M41.6424 3.23047H38.2141V6.46091H41.6424V3.23047Z" fill="#B75F16"/>
<path id="Vector_129" d="M41.6424 9.69238H38.2141V12.9228H41.6424V9.69238Z" fill="#8C3C00"/>
<path id="Vector_130" d="M45.0706 9.69238H41.6424V12.9228H45.0706V9.69238Z" fill="#FFC82E"/>
<path id="Vector_131" d="M41.6424 12.9229H38.2141V16.1533H41.6424V12.9229Z" fill="#7F3300"/>
<path id="Vector_132" d="M45.0706 12.9229H41.6424V16.1533H45.0706V12.9229Z" fill="#FFC82E"/>
<path id="Vector_133" d="M41.6424 16.1533H38.2141V19.3838H41.6424V16.1533Z" fill="#FFC82E"/>
<path id="Vector_134" d="M45.0706 16.1533H41.6424V19.3838H45.0706V16.1533Z" fill="#C67500"/>
<path id="Vector_135" d="M41.6424 19.3848H38.2141V22.6152H41.6424V19.3848Z" fill="#6B2B00"/>
<path id="Vector_136" d="M45.0706 19.3848H41.6424V22.6152H45.0706V19.3848Z" fill="#C67500"/>
<path id="Vector_137" d="M41.6424 22.6152H38.2141V25.8457H41.6424V22.6152Z" fill="#994E04"/>
<path id="Vector_138" d="M45.0706 22.6152H41.6424V25.8457H45.0706V22.6152Z" fill="#C67500"/>
<path id="Vector_139" d="M41.6424 29.076H38.2141V32.3065H41.6424V29.076Z" fill="#8C3C00"/>
<path id="Vector_140" d="M45.0706 29.076H41.6424V32.3065H45.0706V29.076Z" fill="#C67500"/>
<path id="Vector_141" d="M41.6424 32.3076H38.2141V35.5381H41.6424V32.3076Z" fill="#994E04"/>
<path id="Vector_142" d="M45.0706 32.3076H41.6424V35.5381H45.0706V32.3076Z" fill="#FFEB57"/>
<path id="Vector_143" d="M41.6424 35.5381H38.2141V38.7685H41.6424V35.5381Z" fill="#FFEB57"/>
<path id="Vector_144" d="M45.0706 35.5381H41.6424V38.7685H45.0706V35.5381Z" fill="#FFC82E"/>
<path id="Vector_145" d="M7.3565 38.7684H3.92825V41.9989H7.3565V38.7684Z" fill="#0F0F0F"/>
<path id="Vector_146" d="M10.7859 38.7684H7.35764V41.9989H10.7859V38.7684Z" fill="#0F0F0F"/>
<path id="Vector_147" d="M14.2141 38.7684H10.7859V41.9989H14.2141V38.7684Z" fill="#0F0F0F"/>
<path id="Vector_148" d="M17.6424 38.7684H14.2141V41.9989H17.6424V38.7684Z" fill="#0F0F0F"/>
<path id="Vector_149" d="M21.0706 38.7684H17.6424V41.9989H21.0706V38.7684Z" fill="#0F0F0F"/>
<path id="Vector_150" d="M24.5 38.7684H21.0717V41.9989H24.5V38.7684Z" fill="#0F0F0F"/>
<path id="Vector_151" d="M27.9282 38.7684H24.5V41.9989H27.9282V38.7684Z" fill="#0F0F0F"/>
<path id="Vector_152" d="M31.3565 38.7684H27.9283V41.9989H31.3565V38.7684Z" fill="#0F0F0F"/>
<path id="Vector_153" d="M34.7859 38.7684H31.3576V41.9989H34.7859V38.7684Z" fill="#0F0F0F"/>
<path id="Vector_154" d="M41.6424 38.7684H38.2141V41.9989H41.6424V38.7684Z" fill="#0F0F0F"/>
<path id="Vector_155" d="M38.2141 38.7684H34.7859V41.9989H38.2141V38.7684Z" fill="#0F0F0F"/>
<path id="Vector_156" d="M41.6424 38.7684H38.2141V41.9989H41.6424V38.7684Z" fill="#0F0F0F"/>
<path id="Vector_157" d="M45.0706 38.7684H41.6424V41.9989H45.0706V38.7684Z" fill="#0F0F0F"/>
<path id="Vector_158" d="M41.6424 6.46191H38.2141V9.69235H41.6424V6.46191Z" fill="#994E04"/>
<path id="Vector_159" d="M45.0706 6.46191H41.6424V9.69235H45.0706V6.46191Z" fill="#FFC82E"/>
<path id="Vector_160" d="M10.7859 0H7.35764V3.23044H10.7859V0Z" fill="#0F0F0F"/>
<path id="Vector_161" d="M14.2141 0H10.7859V3.23044H14.2141V0Z" fill="#0F0F0F"/>
<path id="Vector_162" d="M17.6424 0H14.2141V3.23044H17.6424V0Z" fill="#0F0F0F"/>
<path id="Vector_163" d="M21.0706 0H17.6424V3.23044H21.0706V0Z" fill="#0F0F0F"/>
<path id="Vector_164" d="M24.5 0H21.0717V3.23044H24.5V0Z" fill="#0F0F0F"/>
<path id="Vector_165" d="M27.9282 0H24.5V3.23044H27.9282V0Z" fill="#0F0F0F"/>
<path id="Vector_166" d="M31.3565 0H27.9283V3.23044H31.3565V0Z" fill="#0F0F0F"/>
<path id="Vector_167" d="M34.7859 0H31.3576V3.23044H34.7859V0Z" fill="#0F0F0F"/>
<path id="Vector_168" d="M41.6424 0H38.2141V3.23044H41.6424V0Z" fill="#0F0F0F"/>
<path id="Vector_169" d="M7.3565 3.23047H3.92825V6.46091H7.3565V3.23047Z" fill="#0F0F0F"/>
<path id="Vector_170" d="M38.2141 0H34.7859V3.23044H38.2141V0Z" fill="#0F0F0F"/>
<path id="Vector_171" d="M41.6424 0H38.2141V3.23044H41.6424V0Z" fill="#0F0F0F"/>
<path id="Vector_172" d="M45.0706 3.23047H41.6424V6.46091H45.0706V3.23047Z" fill="#0F0F0F"/>
<path id="Vector_173" d="M7.3565 25.8457H3.92825V29.0761H7.3565V25.8457Z" fill="#C67500"/>
<path id="Vector_174" d="M10.7859 25.8457H7.35764V29.0761H10.7859V25.8457Z" fill="#994E04"/>
<path id="Vector_175" d="M14.2141 25.8457H10.7859V29.0761H14.2141V25.8457Z" fill="#994E04"/>
<path id="Vector_176" d="M17.6424 25.8457H14.2141V29.0761H17.6424V25.8457Z" fill="#994E04"/>
<path id="Vector_177" d="M21.0706 25.8457H17.6424V29.0761H21.0706V25.8457Z" fill="#994E04"/>
<path id="Vector_178" d="M24.5 25.8457H21.0717V29.0761H24.5V25.8457Z" fill="#6B2B00"/>
<path id="Vector_179" d="M27.9282 25.8457H24.5V29.0761H27.9282V25.8457Z" fill="#6B2B00"/>
<path id="Vector_180" d="M31.3565 25.8457H27.9283V29.0761H31.3565V25.8457Z" fill="#994E04"/>
<path id="Vector_181" d="M34.7859 25.8457H31.3576V29.0761H34.7859V25.8457Z" fill="#994E04"/>
<path id="Vector_182" d="M41.6424 25.8457H38.2141V29.0761H41.6424V25.8457Z" fill="#FFC82E"/>
<path id="Vector_183" d="M3.92825 25.8457H0.5V29.0761H3.92825V25.8457Z" fill="#0F0F0F"/>
<path id="Vector_184" d="M48.4989 25.8457H45.0706V29.0761H48.4989V25.8457Z" fill="#0F0F0F"/>
<path id="Vector_185" d="M38.2141 25.8457H34.7859V29.0761H38.2141V25.8457Z" fill="#994E04"/>
<path id="Vector_186" d="M41.6424 25.8457H38.2141V29.0761H41.6424V25.8457Z" fill="#994E04"/>
<path id="Vector_187" d="M45.0706 25.8457H41.6424V29.0761H45.0706V25.8457Z" fill="#C67500"/>
</g>
<defs>
<clipPath id="clip0_1_49598">
<rect width="48" height="42" fill="white" transform="translate(0.5)"/>
</clipPath>
</defs>
</svg>
