<svg width="30" height="30" viewBox="0 0 30 30" fill="none" xmlns="http://www.w3.org/2000/svg">
<g id="Vector">
<path d="M3 3H9.015V0H0V9H3V3ZM3 21H0V30H9.015V27H3V21ZM27 27H21V30H30V21H27V27ZM21 3H27V9H30V0H21V3Z" fill="#7C7C7C"/>
<path d="M4.5 13.5H13.5V4.5H4.5V13.5ZM7.5 7.5H10.5V10.5H7.5V7.5ZM4.5 25.5H13.5V16.5H4.5V25.5ZM7.5 19.5H10.5V22.5H7.5V19.5ZM25.5 4.5H16.5V13.5H25.5V4.5ZM22.5 10.5H19.5V7.5H22.5V10.5ZM16.515 16.5H19.515V19.5H16.515V16.5ZM19.515 19.5H22.515V22.5H19.515V19.5ZM22.515 22.5H25.515V25.5H22.515V22.5ZM22.515 16.5H25.515V19.5H22.515V16.5Z" fill="#7C7C7C"/>
</g>
</svg>
