<svg width="32" height="38" viewBox="0 0 32 38" fill="none" xmlns="http://www.w3.org/2000/svg">
<g id="Vector">
<path fill-rule="evenodd" clip-rule="evenodd" d="M15.915 26.884L15.135 26.437V18.577L19.077 16.315L15.915 14.5L12 16.748V28.266L15.915 30.5L26 24.734L22.936 22.863L15.915 26.884Z" fill="#7C7C7C"/>
<path fill-rule="evenodd" clip-rule="evenodd" d="M16.357 0.5L0 9.583V27.776L3.114 29.5V11.346L16.357 3.984L22.321 7.309L23.001 4.187L16.357 0.5Z" fill="#7C7C7C"/>
<path fill-rule="evenodd" clip-rule="evenodd" d="M6 13.244V31.755L15.944 37.5L32 28.223V9.671L28.944 11.458V26.424L15.944 33.942L9.057 29.956V15.045L15.944 11.059L22.831 15.031L25.887 13.271V13.244L15.944 7.5L6 13.244Z" fill="#7C7C7C"/>
</g>
</svg>
