<svg width="120" height="29" viewBox="0 0 120 29" fill="none" xmlns="http://www.w3.org/2000/svg">
<g id="firma_chain_title_onlytext 1">
<path id="Vector" d="M1.5293 7.6167H11.322V9.87059H4.2495V13.6789H10.3894V16.0105H4.2495V21.4509H1.5293V7.6167Z" />
<path id="Vector_2" d="M15.7519 7.6167H13.0317V21.4509H15.7519V7.6167Z" />
<path id="Vector_3" d="M29.1983 16.8654V21.4509H26.4781V17.4872L25.3123 16.1659H20.96V21.4509H18.2397V7.6167H26.9444L29.0429 9.79287V13.9898L27.7216 15.3887L29.1983 16.8654ZM21.0377 13.912H25.7786L26.4781 13.2126V10.4923L25.7786 9.79287H20.96L21.0377 13.912Z" />
<path id="Vector_4" d="M31.6851 7.6167H34.1721L38.2913 16.5545L42.4104 7.6167H44.9752V21.4509H42.3327V12.9794L39.2239 19.5079H37.5141L34.4053 12.9794V21.4509H31.6851V7.6167Z" />
<path id="Vector_5" d="M51.3483 7.6167H53.8353L58.8871 21.4509H56.1669L55.0011 18.3421H50.1048L48.939 21.4509H46.2188L51.3483 7.6167ZM54.4571 16.1659L52.5918 10.9587L50.8042 16.1659H54.4571Z" />
<path id="Vector_6" d="M60.1309 19.1193V9.87059L62.3847 7.6167H69.1464L71.4003 9.87059V11.8913H68.6801V10.8032L67.7474 9.87059H63.8614L62.7733 10.9587V18.1866L63.8614 19.2747H67.7474L68.6801 18.3421V17.0986H71.4003V19.1193L69.1464 21.3732H62.3847L60.1309 19.1193Z" />
<path id="Vector_7" d="M73.2651 7.6167H75.9076V13.368H81.8144V7.6167H84.4568V21.4509H81.8144V15.6996H75.9076V21.4509H73.2651V7.6167Z" />
<path id="Vector_8" d="M90.9079 7.6167H93.3949L98.4467 21.4509H95.7265L94.5607 18.3421H89.6643L88.4985 21.4509H85.7783L90.9079 7.6167ZM93.9389 16.1659L92.0737 10.9587L90.2861 16.1659H93.9389Z" />
<path id="Vector_9" d="M102.566 7.6167H99.8457V21.4509H102.566V7.6167Z" />
<path id="Vector_10" d="M105.208 7.6167H107.617L113.757 16.9431V7.6167H116.4V21.4509H113.99L107.85 12.0468V21.4509H105.208V7.6167Z" />
</g>
</svg>
