<svg width="1920" height="459" viewBox="0 0 1920 459" fill="none" xmlns="http://www.w3.org/2000/svg">
<path d="M-456 459H1085.66H4168.99V23.3338H4161.22V15.5581H4153.43V7.78235H4137.83V0H4075.55V7.77575H4059.98V15.5515H4044.4V23.3272H4036.62V38.8853H4028.84V54.4434H4021.05V46.6677H4013.27V38.8919H3997.7V31.1162H3966.56V38.8919H3950.98V46.6677H3943.2V54.4434H3935.42V70.0015H3927.63V62.2258H3912.06V54.45H3896.49V46.6743H3873.11V54.45H3857.53V62.2258H3849.75V70.0015H3841.97V77.7773H3834.18V62.2192H3826.4V46.6611H3818.62V38.8853H3810.83V31.1096H3803.05V23.3338H3787.48V15.5581H3732.98V23.3338H3717.41V31.1096H3701.84V38.8853H3694.05V46.6611H3686.27V62.2192H3678.49V46.6611H3670.7V38.8853H3662.92V31.1096H3655.14V23.3338H3639.56V15.5581H3600.61V23.3338H3585.03V31.1096H3577.25V38.8853H3569.47V54.4434H3561.68V46.6677H3553.9V38.8919H3522.76V46.6677H3514.98V54.4434H3507.2V46.6677H3499.41V38.8919H3483.84V31.1162H3452.7V38.8919H3437.13V46.6677H3429.34V54.4434H3421.56V70.0015H3413.78V62.2258H3398.2V54.45H3382.63V46.6743H3359.25V54.45H3343.68V62.2258H3335.89V70.0015H3328.11V77.7773H3320.33V62.2192H3312.54V46.6611H3304.76V38.8853H3296.98V31.1096H3281.4V23.3338H3265.83V15.5581H3219.12V23.3338H3203.54V31.1096H3187.97V38.8853H3180.19V46.6611H3172.41V62.2192H3164.62V46.6611H3156.84V38.8853H3149.06V31.1096H3141.27V116.742V23.3338H3133.49V15.5581H3125.71V7.78235H3110.11V0H3047.82V7.77575H3032.25V15.5515H3016.67V23.3272H3008.89V38.8853H3001.11V54.4434H2993.33V46.6677H2985.54V38.8919H2969.97V31.1162H2938.83V38.8919H2923.26V46.6677H2915.47V54.4434H2907.69V70.0015H2899.91V62.2258H2884.33V54.45H2868.76V46.6743H2845.38V54.45H2829.8V62.2258H2822.02V70.0015H2814.24V77.7773H2806.46V62.2192H2798.67V46.6611H2790.89V38.8853H2783.11V31.1096H2775.32V23.3338H2759.75V15.5581H2705.25V23.3338H2689.68V31.1096H2674.11V38.8853H2666.32V46.6611H2658.54V62.2192H2650.76V46.6611H2642.97V38.8853H2635.19V31.1096H2627.41V23.3338H2611.84V15.5581H2572.88V23.3338H2557.31V31.1096H2549.52V38.8853H2541.74V54.4434H2533.96V46.6677H2526.17V38.8919H2495.03V46.6677H2487.25V54.4434H2479.47V46.6677H2471.68V38.8919H2456.11V31.1162H2424.97V38.8919H2409.4V46.6677H2401.62V54.4434H2393.83V70.0015H2386.05V62.2258H2370.48V54.45H2354.9V46.6743H2331.52V54.45H2315.95V62.2258H2308.16V70.0015H2300.38V77.7773H2292.6V62.2192H2284.81V46.6611H2277.03V38.8853H2269.25V31.1096H2253.68V23.3338H2238.1V15.5581H2191.39V23.3338H2175.82V31.1096H2160.24V38.8853H2152.46V46.6611H2144.68V62.2192H2136.89V46.6611H2129.11V38.8853H2121.33V31.1096H2113.54V23.3338H2105.76V15.5581H2097.98V7.78235H2082.38V0H2020.09V7.77575H2004.52V15.5515H1988.95V23.3272H1981.16V38.8853H1973.38V54.4434H1965.6V46.6677H1957.81V38.8919H1942.24V31.1162H1911.1V38.8919H1895.53V46.6677H1887.75V54.4434H1879.96V70.0015H1872.18V62.2258H1856.61V54.45H1841.03V46.6743H1817.65V54.45H1802.08V62.2258H1794.29V70.0015H1786.51V77.7773H1778.73V62.2192H1770.94V46.6611H1763.16V38.8853H1755.38V31.1096H1747.59V23.3338H1732.02V15.5581H1677.53V23.3338H1661.95V31.1096H1646.38V38.8853H1638.6V46.6611H1630.81V62.2192H1623.03V46.6611H1615.25V38.8853H1607.46V31.1096H1599.68V23.3338H1584.11V15.5581H1545.15V23.3338H1529.58V31.1096H1521.8V38.8853H1514.01V54.4434H1506.23V46.6677H1498.45V38.8919H1467.31V46.6677H1459.52V54.4434H1451.74V46.6677H1443.96V38.8919H1428.38V31.1162H1397.24V38.8919H1381.67V46.6677H1373.89V54.4434H1366.1V70.0015H1358.32V62.2258H1342.75V54.45H1327.18V46.6743H1303.79V54.45H1288.22V62.2258H1280.44V70.0015H1272.65V77.7773H1264.87V62.2192H1257.09V46.6611H1249.3V38.8853H1241.52V31.1096H1225.95V23.3338H1210.37V15.5581H1163.66V23.3338H1148.09V31.1096H1132.52V38.8853H1124.73V46.6611H1116.95V62.2192H1109.17V46.6611H1101.38V38.8853H1093.6V31.1096H1085.82V23.3338H1078.03V15.5581H1070.25V7.78235H1054.65V0H992.365V7.77575H976.792V15.5515H961.219V23.3272H953.436V38.8853H945.653V54.4434H937.869V46.6677H930.086V38.8919H914.513V31.1162H883.374V38.8919H867.801V46.6677H860.017V54.4434H852.234V70.0015H844.451V62.2258H828.878V54.45H813.305V46.6743H789.922V54.45H774.349V62.2258H766.566V70.0015H758.783V77.7773H751V62.2192H743.216V46.6611H735.433V38.8853H727.65V31.1096H719.867V23.3338H704.294V15.5581H649.798V23.3338H634.225V31.1096H618.652V38.8853H610.869V46.6611H603.085V62.2192H595.302V46.6611H587.519V38.8853H579.736V31.1096H571.953V23.3338H556.38V15.5581H517.424V23.3338H501.851V31.1096H494.068V38.8853H486.284V54.4434H478.501V46.6677H470.718V38.8919H439.578V46.6677H431.795V54.4434H424.012V46.6677H416.229V38.8919H400.656V31.1162H369.516V38.8919H353.943V46.6677H346.16V54.4434H338.377V70.0015H330.594V62.2258H315.021V54.45H299.448V46.6743H276.065V54.45H260.492V62.2258H252.709V70.0015H244.925V77.7773H237.142V62.2192H229.359V46.6611H221.576V38.8853H213.793V31.1096H198.219V23.3338H182.646V15.5581H135.934V23.3338H120.361V31.1096H104.788V38.8853H97.0046V46.6611H89.2215V62.2192H81.4382V46.6611H73.655V38.8853H65.8718V31.1096H58.0886V23.3338H50.3054V15.5581H42.5222V7.78235H26.9227V0H-35.3628V7.77575H-50.9359V15.5515H-66.5089V23.3272H-74.2921V38.8853H-82.0753V54.4434H-89.8586V46.6677H-97.6418V38.8919H-113.215V31.1162H-144.354V38.8919H-159.927V46.6677H-167.711V54.4434H-175.494V70.0015H-183.277V62.2258H-198.85V54.45H-214.423V46.6743H-237.806V54.45H-253.379V62.2258H-261.162V70.0015H-268.945V77.7773H-276.728V62.2192H-284.512V46.6611H-292.295V38.8853H-300.078V31.1096H-307.861V23.3338H-323.434V15.5581H-377.93V23.3338H-393.503V31.1096H-409.076V38.8853H-416.859V46.6611H-424.642V62.2192H-432.426V46.6611H-440.209V38.8853H-447.992V31.1096H-455.987L-456 458.993V459Z" fill="#F1F2FF" fill-opacity="0.3"/>
</svg>
