<svg width="20" height="19" viewBox="0 0 20 19" fill="none" xmlns="http://www.w3.org/2000/svg">
<g id="&#225;&#132;&#146;&#225;&#133;&#166;&#225;&#132;&#131;&#225;&#133;&#165;&#225;&#132;&#144;&#225;&#133;&#161;&#225;&#132;&#139;&#225;&#133;&#181;&#225;&#132;&#144;&#225;&#133;&#179;&#225;&#134;&#175;_&#225;&#132;&#143;&#225;&#133;&#161;&#225;&#134;&#175;&#225;&#132;&#139;&#225;&#133;&#161;&#225;&#132;&#139;&#225;&#133;&#181;&#225;&#132;&#143;&#225;&#133;&#169;&#225;&#134;&#171;" clip-path="url(#clip0_209_91063)">
<path id="Vector" d="M10.4352 1.65698C10.2759 1.65698 10.1167 1.6625 9.96006 1.67355V2.50466C10.1167 2.49361 10.2759 2.48809 10.4352 2.48809C14.4592 2.48809 17.7347 5.89536 17.7347 10.0813C17.7347 11.9119 17.1083 13.5935 16.0678 14.9078V14.9023V13.8199H15.0273V12.732H13.9841V11.6496H15.0246V10.5672H16.0651V9.48487V8.39697H15.0246H13.9841V9.47935H12.9436V8.39697H11.9031V7.3146H10.8625V6.23222H9.82203V5.14985H8.78152V4.06195H7.741V2.97958H6.70049H5.65998H4.61946H3.57895V4.06195V5.14433V6.2267V7.30908H4.61946V8.39145H5.65998V9.47382H6.70049V10.5562H7.741V11.6386H8.78152V12.7209H9.82203V13.8033H8.78152V14.8857V15.9681H9.82203H10.8625V14.8857H11.9031V13.8033H12.9436V14.8857H13.9841V15.9681H15.0166C13.7638 17.0228 12.1685 17.6579 10.4325 17.6579C6.40851 17.6579 3.13301 14.2506 3.13301 10.0647C3.13301 9.89904 3.14098 9.73337 3.14894 9.57047H2.35528C2.34732 9.73337 2.33936 9.89904 2.33936 10.0647C2.33936 14.709 5.97054 18.4862 10.4352 18.4862C14.8998 18.4862 18.531 14.709 18.531 10.0647C18.531 5.42044 14.8998 1.65698 10.4352 1.65698ZM11.9031 11.6496H10.8625V10.5672H9.82203V9.48487H8.78152V8.39697H7.741V7.3146H6.70049V6.23222H7.741V7.3146H8.78152V8.39697H9.82203V9.47935H10.8625V10.5617H11.9031V11.6496Z" fill="white"/>
</g>
<defs>
<clipPath id="clip0_209_91063">
<rect width="19" height="18" fill="white" transform="translate(0.5 0.5)"/>
</clipPath>
</defs>
</svg>
