<svg width="40" height="47" viewBox="0 0 40 47" fill="none" xmlns="http://www.w3.org/2000/svg">
<g id="&#237;&#148;&#188;&#235;&#165;&#180;&#235;&#167;&#136;&#236;&#149;&#132;&#236;&#157;&#180;&#236;&#189;&#152;">
<path id="Vector" fill-rule="evenodd" clip-rule="evenodd" d="M19.8938 32.98L18.9188 32.4213V22.5962L23.8462 19.7687L19.8938 17.5L15 20.31V34.7075L19.8938 37.5L32.5 30.2925L28.67 27.9538L19.8938 32.98Z" fill="#363C60"/>
<path id="Vector_2" fill-rule="evenodd" clip-rule="evenodd" d="M20.4463 0L0 11.3538V34.095L3.8925 36.25V13.5575L20.4463 4.355L27.9012 8.51125L28.7512 4.60875L20.4463 0Z" fill="#363C60"/>
<path id="Vector_3" fill-rule="evenodd" clip-rule="evenodd" d="M7.5 15.93V39.0687L19.93 46.25L40 34.6537V11.4637L36.18 13.6975V32.405L19.93 41.8025L11.3213 36.82V18.1812L19.93 13.1988L28.5387 18.1637L32.3587 15.9637V15.93L19.93 8.75L7.5 15.93Z" fill="#363C60"/>
</g>
</svg>
