<svg width="172" height="20" viewBox="0 0 172 20" fill="none" xmlns="http://www.w3.org/2000/svg">
<g id="Frame 427321732">
<g id="Vector" filter="url(#filter0_d_17_254)">
<path d="M168.12 9.66188C167.693 9.10629 167.183 8.6749 166.591 8.3655C165.999 8.05611 165.248 7.74453 164.338 7.4286C163.727 7.20854 163.265 7.0277 162.952 6.8839C162.638 6.74007 162.377 6.56797 162.168 6.36968C161.956 6.17142 161.852 5.93394 161.852 5.65938C161.852 5.33038 161.947 5.07763 162.137 4.89896C162.327 4.72033 162.572 4.631 162.872 4.631C163.265 4.631 163.589 4.73993 163.839 4.95999C164.09 5.18005 164.224 5.50905 164.237 5.947H168.58C168.513 4.52204 167.98 3.41301 166.98 2.62646C165.98 1.83773 164.645 1.44336 162.973 1.44336C161.941 1.44336 161.016 1.61549 160.2 1.95756C159.383 2.29964 158.746 2.80513 158.284 3.46968C157.822 4.1342 157.591 4.93383 157.591 5.86638C157.591 6.78586 157.804 7.52882 158.232 8.09751C158.66 8.66616 159.163 9.09758 159.74 9.39391C160.316 9.68804 161.075 9.99308 162.014 10.309C162.897 10.5966 163.537 10.8581 163.93 11.0912C164.323 11.3243 164.522 11.6533 164.522 12.0782C164.522 12.4072 164.403 12.6643 164.166 12.8495C163.928 13.0347 163.626 13.1262 163.258 13.1262C162.85 13.1262 162.517 13.0108 162.258 12.7776C161.999 12.5445 161.85 12.1741 161.809 11.6664H157.547C157.629 13.1611 158.206 14.3093 159.28 15.1111C160.353 15.913 161.727 16.3139 163.399 16.3139C164.5 16.3139 165.455 16.1156 166.263 15.7168C167.071 15.3203 167.691 14.7778 168.118 14.0914C168.546 13.4051 168.76 12.6316 168.76 11.7666C168.762 10.9191 168.548 10.2153 168.12 9.66188Z" fill="white"/>
</g>
<g id="Vector_2" filter="url(#filter1_d_17_254)">
<path d="M92.1158 1.66992H87.5085L83.0418 7.92316V1.66992H81.0805H79.0458H77.3589L79.0458 3.37378V14.4683L77.3589 16.17H79.0458H81.0805H83.0418V9.81438L87.5496 16.17H92.3814L86.8348 8.70535L92.1158 1.66992Z" fill="white"/>
</g>
<g id="Vector_3" filter="url(#filter2_d_17_254)">
<path d="M113.444 1.66992H111.96H109.448H108.236L109.448 2.89225V16.17H111.191H113.444H114.913L113.444 14.6906V1.66992Z" fill="white"/>
</g>
<g id="Vector_4" filter="url(#filter3_d_17_254)">
<path d="M121.258 10.8004H125.276C124.677 12.0751 123.677 12.7134 122.277 12.7134C121.094 12.7134 120.195 12.3888 119.575 11.7373C118.957 11.0859 118.649 10.1359 118.649 8.88961C118.649 7.7784 118.938 6.89378 119.515 6.2358C120.091 5.57778 120.884 5.24879 121.891 5.24879C122.435 5.24879 122.906 5.35119 123.308 5.55819C123.709 5.76298 124.025 6.05931 124.256 6.44277H128.558C128.273 4.92194 127.539 3.72143 126.357 2.84335C125.174 1.96529 123.679 1.52734 121.871 1.52734C120.431 1.52734 119.161 1.83891 118.059 2.46206C116.957 3.08522 116.104 3.95674 115.499 5.07448C114.895 6.19222 114.592 7.46465 114.592 8.88961C114.592 10.3298 114.895 11.6088 115.499 12.7243C116.104 13.8421 116.96 14.7114 118.068 15.3367C119.176 15.9599 120.45 16.2715 121.891 16.2715C123.072 16.2715 124.126 16.0558 125.051 15.6244C125.975 15.1929 126.74 14.6417 127.345 13.9685C127.949 13.2974 128.407 12.5762 128.721 11.8092V7.9026H121.258V10.8004Z" fill="white"/>
</g>
<g id="Vector_5" filter="url(#filter4_d_17_254)">
<path d="M139.378 7.12135H134.506V1.66992H132.872H130.51H129.151L130.51 3.04258V7.06688H129.151L130.51 8.43735V15.0719L129.421 16.17H130.51H133.145H134.506V10.3504H139.378V16.17H143.374V1.66992H139.378V7.12135Z" fill="white"/>
</g>
<g id="Vector_6" filter="url(#filter5_d_17_254)">
<path d="M144.867 2.10569V4.87933V5.85981L145.841 4.87933H148.66V16.17H152.656V4.87933H155.516L156.49 5.85981V4.87933V2.10569V1.66992H144.867V2.10569Z" fill="white"/>
</g>
<g id="Vector_7" filter="url(#filter6_d_17_254)">
<path d="M103.166 1.66992H101.948L103.166 2.90096V9.87756L97.8442 1.66992H93.8481V16.17H95.3903H97.8442H99.112L97.8442 14.8932V8.06696L103.166 16.17H107.162V1.66992H105.67H103.166Z" fill="white"/>
</g>
<g id="Vector_8" filter="url(#filter7_d_17_254)">
<path d="M48.9268 16.1622H57.3895V13.077H52.9249V1.66211H51.0458H48.9268H47.3242L48.9268 3.28098V16.1622Z" fill="white"/>
</g>
<g id="Vector_9" filter="url(#filter8_d_17_254)">
<path d="M67.8043 1.66211H63.197L59.9267 10.7108H58.3307L59.4992 11.8895L57.957 16.16H62.1582L62.9335 13.7938H68.031L68.8066 16.16H73.027L67.8043 1.66211ZM63.951 10.7108L65.4802 6.02194L67.0287 10.7108H63.951Z" fill="white"/>
</g>
<g id="Vector_10" filter="url(#filter9_d_17_254)">
<path d="M15.7569 1.66211H11.1497L6.68289 7.91316V1.66211H4.72163H2.68694H1L2.68694 3.36378V14.4584L1 16.1622H2.68694H4.72163H6.68289V9.80656L11.1907 16.1622H16.0226L10.4758 8.69535L15.7569 1.66211Z" fill="white"/>
</g>
<g id="Vector_11" filter="url(#filter10_d_17_254)">
<path d="M34.0988 11.8917L32.5566 16.1622H36.7578L37.5331 13.796H42.6306L43.4062 16.1622H47.6266L42.4082 1.66211H37.8009L34.5309 10.7108H32.9346L34.0988 11.8917ZM40.0798 6.02194L41.6284 10.7108H38.5506L40.0798 6.02194Z" fill="white"/>
</g>
<g id="Vector_12" filter="url(#filter11_d_17_254)">
<path d="M31.722 7.91567C31.6075 6.86331 31.3005 5.89808 30.7951 5.0222C30.143 3.8914 29.2552 3.01114 28.1341 2.37928C27.2766 1.89558 26.3478 1.59926 25.3499 1.48596L24.4039 0L23.4556 1.48814C22.475 1.60362 21.557 1.89994 20.7017 2.3771C19.5742 3.00896 18.6799 3.88922 18.0211 5.02003C17.5114 5.8959 17.2004 6.86114 17.0859 7.91132L15.6128 8.86564L17.0881 9.81999C17.2047 10.8636 17.5157 11.8201 18.0211 12.6895C18.6799 13.8203 19.5742 14.7049 20.7017 15.3433C21.557 15.827 22.475 16.1255 23.4535 16.2431L24.4017 17.7313L25.3478 16.2453C26.3349 16.1299 27.2615 15.8313 28.1212 15.3433C29.2487 14.7049 30.1386 13.8203 30.7931 12.6895C31.2942 11.8201 31.6009 10.8636 31.7177 9.81999L33.1905 8.86564L31.722 7.91567ZM26.8295 11.5521C26.2377 12.2232 25.432 12.5609 24.4125 12.5609C23.38 12.5609 22.57 12.2298 21.9869 11.563C21.4015 10.8985 21.1099 9.99645 21.1099 8.85911C21.1099 7.7065 21.4015 6.80011 21.9869 6.13338C22.57 5.46886 23.38 5.13549 24.4125 5.13549C25.432 5.13549 26.2377 5.46886 26.8295 6.13338C27.4214 6.79793 27.7172 7.7065 27.7172 8.85911C27.7172 9.98338 27.4214 10.8811 26.8295 11.5521Z" fill="#F46E27"/>
</g>
</g>
<defs>
<filter id="filter0_d_17_254" x="157.547" y="1.44336" width="13.2123" height="15.8706" filterUnits="userSpaceOnUse" color-interpolation-filters="sRGB">
<feFlood flood-opacity="0" result="BackgroundImageFix"/>
<feColorMatrix in="SourceAlpha" type="matrix" values="0 0 0 0 0 0 0 0 0 0 0 0 0 0 0 0 0 0 127 0" result="hardAlpha"/>
<feOffset dx="2" dy="1"/>
<feComposite in2="hardAlpha" operator="out"/>
<feColorMatrix type="matrix" values="0 0 0 0 0.211765 0 0 0 0 0.235294 0 0 0 0 0.376471 0 0 0 1 0"/>
<feBlend mode="normal" in2="BackgroundImageFix" result="effect1_dropShadow_17_254"/>
<feBlend mode="normal" in="SourceGraphic" in2="effect1_dropShadow_17_254" result="shape"/>
</filter>
<filter id="filter1_d_17_254" x="77.3589" y="1.66992" width="17.0225" height="15.5" filterUnits="userSpaceOnUse" color-interpolation-filters="sRGB">
<feFlood flood-opacity="0" result="BackgroundImageFix"/>
<feColorMatrix in="SourceAlpha" type="matrix" values="0 0 0 0 0 0 0 0 0 0 0 0 0 0 0 0 0 0 127 0" result="hardAlpha"/>
<feOffset dx="2" dy="1"/>
<feComposite in2="hardAlpha" operator="out"/>
<feColorMatrix type="matrix" values="0 0 0 0 0.211765 0 0 0 0 0.235294 0 0 0 0 0.376471 0 0 0 1 0"/>
<feBlend mode="normal" in2="BackgroundImageFix" result="effect1_dropShadow_17_254"/>
<feBlend mode="normal" in="SourceGraphic" in2="effect1_dropShadow_17_254" result="shape"/>
</filter>
<filter id="filter2_d_17_254" x="108.236" y="1.66992" width="8.67656" height="15.5" filterUnits="userSpaceOnUse" color-interpolation-filters="sRGB">
<feFlood flood-opacity="0" result="BackgroundImageFix"/>
<feColorMatrix in="SourceAlpha" type="matrix" values="0 0 0 0 0 0 0 0 0 0 0 0 0 0 0 0 0 0 127 0" result="hardAlpha"/>
<feOffset dx="2" dy="1"/>
<feComposite in2="hardAlpha" operator="out"/>
<feColorMatrix type="matrix" values="0 0 0 0 0.211765 0 0 0 0 0.235294 0 0 0 0 0.376471 0 0 0 1 0"/>
<feBlend mode="normal" in2="BackgroundImageFix" result="effect1_dropShadow_17_254"/>
<feBlend mode="normal" in="SourceGraphic" in2="effect1_dropShadow_17_254" result="shape"/>
</filter>
<filter id="filter3_d_17_254" x="114.592" y="1.52734" width="16.1284" height="15.7441" filterUnits="userSpaceOnUse" color-interpolation-filters="sRGB">
<feFlood flood-opacity="0" result="BackgroundImageFix"/>
<feColorMatrix in="SourceAlpha" type="matrix" values="0 0 0 0 0 0 0 0 0 0 0 0 0 0 0 0 0 0 127 0" result="hardAlpha"/>
<feOffset dx="2" dy="1"/>
<feComposite in2="hardAlpha" operator="out"/>
<feColorMatrix type="matrix" values="0 0 0 0 0.211765 0 0 0 0 0.235294 0 0 0 0 0.376471 0 0 0 1 0"/>
<feBlend mode="normal" in2="BackgroundImageFix" result="effect1_dropShadow_17_254"/>
<feBlend mode="normal" in="SourceGraphic" in2="effect1_dropShadow_17_254" result="shape"/>
</filter>
<filter id="filter4_d_17_254" x="129.151" y="1.66992" width="16.2233" height="15.5" filterUnits="userSpaceOnUse" color-interpolation-filters="sRGB">
<feFlood flood-opacity="0" result="BackgroundImageFix"/>
<feColorMatrix in="SourceAlpha" type="matrix" values="0 0 0 0 0 0 0 0 0 0 0 0 0 0 0 0 0 0 127 0" result="hardAlpha"/>
<feOffset dx="2" dy="1"/>
<feComposite in2="hardAlpha" operator="out"/>
<feColorMatrix type="matrix" values="0 0 0 0 0.211765 0 0 0 0 0.235294 0 0 0 0 0.376471 0 0 0 1 0"/>
<feBlend mode="normal" in2="BackgroundImageFix" result="effect1_dropShadow_17_254"/>
<feBlend mode="normal" in="SourceGraphic" in2="effect1_dropShadow_17_254" result="shape"/>
</filter>
<filter id="filter5_d_17_254" x="144.867" y="1.66992" width="13.6228" height="15.5" filterUnits="userSpaceOnUse" color-interpolation-filters="sRGB">
<feFlood flood-opacity="0" result="BackgroundImageFix"/>
<feColorMatrix in="SourceAlpha" type="matrix" values="0 0 0 0 0 0 0 0 0 0 0 0 0 0 0 0 0 0 127 0" result="hardAlpha"/>
<feOffset dx="2" dy="1"/>
<feComposite in2="hardAlpha" operator="out"/>
<feColorMatrix type="matrix" values="0 0 0 0 0.211765 0 0 0 0 0.235294 0 0 0 0 0.376471 0 0 0 1 0"/>
<feBlend mode="normal" in2="BackgroundImageFix" result="effect1_dropShadow_17_254"/>
<feBlend mode="normal" in="SourceGraphic" in2="effect1_dropShadow_17_254" result="shape"/>
</filter>
<filter id="filter6_d_17_254" x="93.8481" y="1.66992" width="15.3143" height="15.5" filterUnits="userSpaceOnUse" color-interpolation-filters="sRGB">
<feFlood flood-opacity="0" result="BackgroundImageFix"/>
<feColorMatrix in="SourceAlpha" type="matrix" values="0 0 0 0 0 0 0 0 0 0 0 0 0 0 0 0 0 0 127 0" result="hardAlpha"/>
<feOffset dx="2" dy="1"/>
<feComposite in2="hardAlpha" operator="out"/>
<feColorMatrix type="matrix" values="0 0 0 0 0.211765 0 0 0 0 0.235294 0 0 0 0 0.376471 0 0 0 1 0"/>
<feBlend mode="normal" in2="BackgroundImageFix" result="effect1_dropShadow_17_254"/>
<feBlend mode="normal" in="SourceGraphic" in2="effect1_dropShadow_17_254" result="shape"/>
</filter>
<filter id="filter7_d_17_254" x="47.3242" y="1.66211" width="12.0653" height="15.5" filterUnits="userSpaceOnUse" color-interpolation-filters="sRGB">
<feFlood flood-opacity="0" result="BackgroundImageFix"/>
<feColorMatrix in="SourceAlpha" type="matrix" values="0 0 0 0 0 0 0 0 0 0 0 0 0 0 0 0 0 0 127 0" result="hardAlpha"/>
<feOffset dx="2" dy="1"/>
<feComposite in2="hardAlpha" operator="out"/>
<feColorMatrix type="matrix" values="0 0 0 0 0.211765 0 0 0 0 0.235294 0 0 0 0 0.376471 0 0 0 1 0"/>
<feBlend mode="normal" in2="BackgroundImageFix" result="effect1_dropShadow_17_254"/>
<feBlend mode="normal" in="SourceGraphic" in2="effect1_dropShadow_17_254" result="shape"/>
</filter>
<filter id="filter8_d_17_254" x="57.957" y="1.66211" width="17.0699" height="15.498" filterUnits="userSpaceOnUse" color-interpolation-filters="sRGB">
<feFlood flood-opacity="0" result="BackgroundImageFix"/>
<feColorMatrix in="SourceAlpha" type="matrix" values="0 0 0 0 0 0 0 0 0 0 0 0 0 0 0 0 0 0 127 0" result="hardAlpha"/>
<feOffset dx="2" dy="1"/>
<feComposite in2="hardAlpha" operator="out"/>
<feColorMatrix type="matrix" values="0 0 0 0 0.211765 0 0 0 0 0.235294 0 0 0 0 0.376471 0 0 0 1 0"/>
<feBlend mode="normal" in2="BackgroundImageFix" result="effect1_dropShadow_17_254"/>
<feBlend mode="normal" in="SourceGraphic" in2="effect1_dropShadow_17_254" result="shape"/>
</filter>
<filter id="filter9_d_17_254" x="1" y="1.66211" width="17.0226" height="15.5" filterUnits="userSpaceOnUse" color-interpolation-filters="sRGB">
<feFlood flood-opacity="0" result="BackgroundImageFix"/>
<feColorMatrix in="SourceAlpha" type="matrix" values="0 0 0 0 0 0 0 0 0 0 0 0 0 0 0 0 0 0 127 0" result="hardAlpha"/>
<feOffset dx="2" dy="1"/>
<feComposite in2="hardAlpha" operator="out"/>
<feColorMatrix type="matrix" values="0 0 0 0 0.211765 0 0 0 0 0.235294 0 0 0 0 0.376471 0 0 0 1 0"/>
<feBlend mode="normal" in2="BackgroundImageFix" result="effect1_dropShadow_17_254"/>
<feBlend mode="normal" in="SourceGraphic" in2="effect1_dropShadow_17_254" result="shape"/>
</filter>
<filter id="filter10_d_17_254" x="32.5566" y="1.66211" width="17.0699" height="15.5" filterUnits="userSpaceOnUse" color-interpolation-filters="sRGB">
<feFlood flood-opacity="0" result="BackgroundImageFix"/>
<feColorMatrix in="SourceAlpha" type="matrix" values="0 0 0 0 0 0 0 0 0 0 0 0 0 0 0 0 0 0 127 0" result="hardAlpha"/>
<feOffset dx="2" dy="1"/>
<feComposite in2="hardAlpha" operator="out"/>
<feColorMatrix type="matrix" values="0 0 0 0 0.211765 0 0 0 0 0.235294 0 0 0 0 0.376471 0 0 0 1 0"/>
<feBlend mode="normal" in2="BackgroundImageFix" result="effect1_dropShadow_17_254"/>
<feBlend mode="normal" in="SourceGraphic" in2="effect1_dropShadow_17_254" result="shape"/>
</filter>
<filter id="filter11_d_17_254" x="15.6128" y="0" width="19.5777" height="18.7312" filterUnits="userSpaceOnUse" color-interpolation-filters="sRGB">
<feFlood flood-opacity="0" result="BackgroundImageFix"/>
<feColorMatrix in="SourceAlpha" type="matrix" values="0 0 0 0 0 0 0 0 0 0 0 0 0 0 0 0 0 0 127 0" result="hardAlpha"/>
<feOffset dx="2" dy="1"/>
<feComposite in2="hardAlpha" operator="out"/>
<feColorMatrix type="matrix" values="0 0 0 0 0.211765 0 0 0 0 0.235294 0 0 0 0 0.376471 0 0 0 1 0"/>
<feBlend mode="normal" in2="BackgroundImageFix" result="effect1_dropShadow_17_254"/>
<feBlend mode="normal" in="SourceGraphic" in2="effect1_dropShadow_17_254" result="shape"/>
</filter>
</defs>
</svg>
