<svg width="280" height="325" viewBox="0 0 280 325" fill="none" xmlns="http://www.w3.org/2000/svg">
<g clip-path="url(#clip0_1211_6676)">
<path fill-rule="evenodd" clip-rule="evenodd" d="M139.256 231.751L132.431 227.825V158.784L166.924 138.915L139.256 122.973L105 142.719V243.89L139.256 263.513L227.5 212.866L200.69 196.432L139.256 231.751Z"  />
<path fill-rule="evenodd" clip-rule="evenodd" d="M143.124 0L0 79.7831V239.586L27.2475 254.73V95.2689L143.124 30.6027L195.309 59.8088L201.259 32.3858L143.124 0Z"  />
<path fill-rule="evenodd" clip-rule="evenodd" d="M52.5 111.941V274.537L139.51 325L280 243.513V80.5562L253.26 96.2528V227.711L139.51 293.747L79.2488 258.735V127.76L139.51 92.7481L199.771 127.637L226.511 112.178V111.941L139.51 61.4866L52.5 111.941Z"  />
</g>
<defs>
<clipPath id="clip0_1211_6676">
<rect width="280" height="325" fill="white"/>
</clipPath>
</defs>
</svg>
