<svg width="69" height="30" viewBox="0 0 69 30" fill="none" xmlns="http://www.w3.org/2000/svg">
<path d="M41.4492 4.51218L42.4783 5.53005V14.2108V14.5094H42.7802H48.6449H48.6781H48.9785H49.075H52.0025H52.2206L52.2887 14.3047L52.7614 12.8927H55.8786L56.3497 14.3047L56.4192 14.5094H56.6358H59.5776H60.0077L60.9561 12.4878L60.8028 12.0672L56.982 1.66341L56.9062 1.45703H56.6848H53.313H53.0917L53.0158 1.66186L50.6983 7.9504H49.7515H48.988L48.7003 9.64841H46.1094V1.76974V1.45703H45.7932H44.4179H42.8671H41.6942H40.9307L40.9339 4.00247L41.4492 4.51218Z" fill="#363C60"/>
<path d="M42.8379 12.2413H49.0515V10.0338H45.7735V1.86621H44.3938H42.8379H41.6611L42.8379 3.02454V12.2413Z" fill="white"/>
<path d="M56.6997 1.86621H53.3171L50.9161 8.34073H49.744L50.602 9.18415L49.4697 12.2398H52.5543L53.1237 10.5467H56.8663L57.4357 12.2398H60.5346L56.6997 1.86621ZM53.8706 8.34073L54.9934 4.98577L56.1304 8.34073H53.8706Z" fill="white"/>
<path d="M28.6246 13.8383C28.0335 14.1618 27.3916 14.3749 26.7166 14.4682C26.539 14.5014 26.1987 14.5427 25.8188 14.5413C25.5626 14.5402 25.2885 14.5201 25.0338 14.465C24.365 14.3702 23.7281 14.1587 23.1416 13.8368C22.3097 13.3796 21.6426 12.7374 21.1561 11.9256C20.8692 11.4467 20.6665 10.9226 20.5476 10.3644C20.4067 10.184 20.2751 9.99426 20.1546 9.79366L19.5699 9.42511L19.1737 9.1763L18.1168 6.99459L16.7778 8.73001L19.2133 11.9225L19.5937 12.4201L20.6237 14.4308H20.0199H16.6431H16.4878L16.3974 14.3063L13.797 10.7376V14.1354V14.4308H13.4959H12.1252H10.7038H9.52484H8.7959L7.1748 12.4201L7.71516 11.8883L8.86087 10.764V4.04623L8.79431 3.9809H8.86087V3.10386L7.71516 1.97957L7.1748 1.44931H7.94018H9.17779H10.6705H12.1094H12.4263L13.4484 3.8674L15.1297 1.57836L15.2248 1.44931H15.3864H18.7665H19.4035L20.3384 3.71967C20.8296 2.99967 21.4683 2.42275 22.2432 2.00134C22.8581 1.66546 23.5267 1.44619 24.2287 1.34823L24.8436 0.407422L25.1098 0L25.3761 0.407422L25.9893 1.34511C26.7056 1.44308 27.3806 1.66234 28.0003 2.00134C28.8686 2.47719 29.5658 3.15052 30.0713 4.00269C30.4358 4.62003 30.6719 5.30425 30.7733 6.04134L31.7273 6.64315L32.1424 6.9044L32.3278 7.87474L34.6383 1.65456L34.7144 1.44931H34.9362H38.3163H38.538L38.6142 1.65456L42.4443 12.0034L42.598 12.4201L42.533 14.4308H42.102H39.1529H38.9343L38.8661 14.2271L38.3938 12.8229H35.269L34.7968 14.2271L34.7286 14.4308H34.5099H31.5751H31.1441L30.6402 12.4201L30.7955 12.0034L31.3882 10.4079L31.2297 10.2524C31.1172 10.8526 30.9081 11.414 30.6038 11.9256C30.1237 12.7374 29.4566 13.3811 28.6246 13.8383Z" fill="#363C60"/>
<path d="M18.6836 1.69336H15.3008L12.0212 6.16612V1.69336H10.5812H9.08724H7.84863L9.08724 2.91094V10.8494L7.84863 12.0685H9.08724H10.5812H12.0212V7.5209L15.331 12.0685H18.8786L14.806 6.72581L18.6836 1.69336Z" fill="white"/>
<path d="M32.1489 9.01286L31.0166 12.0685H34.1012L34.6705 10.3754H38.4132L38.9825 12.0685H42.0814L38.2499 1.69336H34.8671L32.4661 8.16788H31.2941L32.1489 9.01286ZM36.5403 4.81292L37.6773 8.16788H35.4175L36.5403 4.81292Z" fill="white"/>
<path d="M30.4068 6.16874C30.3227 5.41574 30.0976 4.7251 29.7265 4.09838C29.2476 3.28926 28.5957 2.65942 27.7727 2.20732C27.143 1.86122 26.461 1.6492 25.7284 1.56812L25.0338 0.504883L24.3375 1.56968C23.6176 1.65232 22.9435 1.86433 22.3155 2.20576C21.4877 2.65787 20.831 3.2877 20.3474 4.09682C19.9731 4.72354 19.7448 5.41418 19.6607 6.16561L18.5791 6.84846L19.6623 7.5313C19.7479 8.27806 19.9763 8.96246 20.3474 9.5845C20.831 10.3936 21.4877 11.0266 22.3155 11.4834C22.9435 11.8295 23.6176 12.043 24.336 12.1272L25.0322 13.192L25.7268 12.1288C26.4516 12.0462 27.132 11.8326 27.7632 11.4834C28.5909 11.0266 29.2443 10.3936 29.7249 9.5845C30.0929 8.96246 30.3181 8.27806 30.4037 7.5313L31.4853 6.84846L30.4068 6.16874ZM26.8147 8.7707C26.3802 9.25088 25.7887 9.49253 25.0402 9.49253C24.282 9.49253 23.6874 9.25555 23.2591 8.7785C22.8293 8.303 22.6152 7.65758 22.6152 6.84378C22.6152 6.01907 22.8293 5.37052 23.2591 4.89347C23.6874 4.41797 24.282 4.17946 25.0402 4.17946C25.7887 4.17946 26.3802 4.41797 26.8147 4.89347C27.2493 5.36896 27.4665 6.01907 27.4665 6.84378C27.4665 7.64822 27.2493 8.29053 26.8147 8.7707Z" fill="#F17237"/>
<path d="M66.9734 21.9284C67.2032 22.1088 67.4123 22.3187 67.601 22.5551C67.9574 23.0045 68.1381 23.5752 68.1302 24.2485C68.1302 24.9219 67.9559 25.5361 67.6104 26.0726C67.4836 26.2701 67.3363 26.4536 67.1668 26.6215V26.6231C66.8388 27.1347 65.2113 29.0708 64.5964 29.3647C63.9927 29.6538 63.2733 29.8 62.462 29.8C61.2338 29.8 60.2055 29.5062 59.4052 28.9245C58.5827 28.3259 58.1343 27.4644 58.0724 26.3603L58.055 26.0477L59.1754 24.6793C58.9693 24.5129 58.7809 24.3185 58.6096 24.0977C58.4575 23.9033 58.3419 23.6794 58.2578 23.4321L57.418 22.608L56.8269 22.0279H56.3135V27.3913V27.7023L55.255 29.702H54.9538H52.1617H51.8607V29.4066V22.0279H50.3172L49.7261 22.608L49.5091 22.821V27.3913V27.7023L48.7738 29.702H48.4726H45.6806H45.3795V29.4066V25.746H43.0041V27.3913V27.7023L42.5794 29.702H42.2783H41.3259H39.4861H38.7255H37.9966L38.1931 27.7023L38.7334 27.172L39.3245 26.592L39.1836 24.2734L38.7572 23.8551V24.2796V24.3403L38.5337 26.4411V26.5002L38.5117 26.5547C38.2803 27.1067 37.938 27.6292 37.4942 28.1097C37.0475 28.5933 36.4753 28.9944 35.7955 29.304C35.1126 29.615 34.3266 29.7721 33.4597 29.7721C32.4043 29.7721 31.4568 29.5449 30.6407 29.0987C30.0148 28.7551 29.4935 28.3025 29.0814 27.7505L29.3127 29.702H28.5838H27.5586H25.9834H24.7664H24.4653L23.9851 27.7023V27.3913V20.0328L23.7062 19.7591L23.4733 19.5305V19.5507V29.4066V29.702H23.1723H20.3801H20.2185L20.1297 29.5698L16.9652 24.8814L16.7624 26.9901L16.9478 27.172L17.4881 27.7023L18.2773 29.702H17.5484H16.6625H14.9464H13.8703H13.5694L12.5457 27.7023V27.3913V20.1899L9.59812 24.0091L12.0385 27.2062L12.4189 27.7038L13.4489 29.7036H12.8451H9.46822H9.31298L8.07688 28.3259L6.62214 26.0104V29.4066V29.702H6.32116H4.95049H3.529H2.35008H1.621L0 27.7023L0.54028 27.1689L1.68611 26.0446V19.3159L1.61945 19.2506H1.68611V18.3829L0.54028 17.2586L0 16.7283H0.765437H2.0045H3.4973H4.93619H5.25303L6.44314 18.9178L7.9549 16.8574L8.05 16.7283H8.2116H11.5916H12.2287L12.5457 17.4981V17.0393V16.7283H12.8625H15.7942H15.9653L16.0588 16.8698L19.3802 21.8538V19.8213L19.3153 19.7576L18.8002 19.2522L18.038 16.7299H18.0428L19.3596 16.7314H19.7019H21.5386H22.6334H22.6541H22.9504H23.4195H24.3085H26.1498H27.24H27.557L27.8675 19.2537V19.5492L27.847 21.1587C27.9531 20.4962 28.1591 19.8804 28.4698 19.3222C28.9404 18.4778 29.6122 17.8091 30.4696 17.3364C31.3205 16.8667 32.314 16.6288 33.4218 16.6288C34.8099 16.6288 35.9809 16.9647 36.9 17.6287C37.2804 17.9024 37.5989 18.2227 37.8635 18.582L38.0014 16.7314H38.7668H39.7635H41.4971H42.695H43.012V17.0425V20.6206H45.3874V19.5492V19.2537L45.9532 16.7314H46.27H49.2017H49.5185V17.0425V18.2585L49.9765 16.7314H50.2934H58.8188H59.1358V17.0425V17.3535V19.333V19.6565C59.226 19.473 59.3211 19.2911 59.4242 19.1278C59.5177 18.7701 59.6666 18.442 59.8757 18.1497C60.2482 17.6287 60.7664 17.2291 61.4192 16.9616C62.0547 16.7035 62.7805 16.5713 63.576 16.5713C64.8689 16.5713 65.9228 16.8776 66.7104 17.481C67.5153 18.0983 67.9512 18.9738 68.005 20.081L68.0208 20.4076L66.9734 21.9284Z" fill="#363C60"/>
<path d="M67.31 22.737C66.996 22.3394 66.6217 22.0308 66.1872 21.8094C65.7526 21.588 65.2006 21.3651 64.5331 21.139C64.0842 20.9816 63.7448 20.8522 63.5148 20.7493C63.2849 20.6464 63.093 20.5232 62.9391 20.3813C62.7837 20.2395 62.7076 20.0696 62.7076 19.8731C62.7076 19.6377 62.7774 19.4569 62.9171 19.329C63.0566 19.2012 63.2358 19.1373 63.4563 19.1373C63.7448 19.1373 63.9827 19.2152 64.1667 19.3727C64.3507 19.5301 64.449 19.7655 64.4585 20.0789H67.6478C67.5986 19.0593 67.2068 18.2658 66.4726 17.703C65.7383 17.1386 64.7583 16.8564 63.5307 16.8564C62.7727 16.8564 62.094 16.9796 61.4945 17.2244C60.895 17.4691 60.4271 17.8308 60.0878 18.3063C59.7484 18.7818 59.5787 19.354 59.5787 20.0212C59.5787 20.6791 59.7357 21.2107 60.0497 21.6176C60.3637 22.0245 60.7333 22.3332 61.1567 22.5452C61.5801 22.7557 62.1367 22.974 62.8266 23.2C63.4752 23.4058 63.9446 23.5929 64.2334 23.7597C64.5219 23.9265 64.6678 24.1619 64.6678 24.4659C64.6678 24.7013 64.5806 24.8853 64.4061 25.0178C64.2316 25.1503 64.0097 25.2158 63.7402 25.2158C63.4404 25.2158 63.1961 25.1332 63.0058 24.9664C62.8154 24.7995 62.706 24.5345 62.6759 24.1713H59.5469C59.6072 25.2408 60.0306 26.0623 60.8189 26.636C61.607 27.2098 62.6156 27.4966 63.8432 27.4966C64.652 27.4966 65.3529 27.3547 65.946 27.0695C66.5393 26.7857 66.9944 26.3975 67.3085 25.9064C67.6224 25.4154 67.7795 24.8619 67.7795 24.243C67.781 23.6365 67.6241 23.133 67.31 22.737Z" fill="white"/>
<path d="M11.5067 17.0195H8.1241L4.84434 21.4939V17.0195H3.40436H1.91047H0.671875L1.91047 18.2387V26.1771L0.671875 27.3947H1.91047H3.40436H4.84434V22.8471L8.15425 27.3947H11.7019L7.62919 22.0536L11.5067 17.0195Z" fill="white"/>
<path d="M27.1674 17.0195H26.0779H24.2335H23.3438L24.2335 17.8941V27.3947H25.5133H27.1674H28.2459L27.1674 26.3361V17.0195Z" fill="white"/>
<path d="M32.9019 23.5501H35.8516C35.4123 24.4622 34.6781 24.9189 33.6504 24.9189C32.7813 24.9189 32.1217 24.6867 31.6664 24.2205C31.2128 23.7544 30.9861 23.0746 30.9861 22.1829C30.9861 21.3878 31.1987 20.7549 31.6221 20.284C32.0456 19.8132 32.6275 19.5778 33.3665 19.5778C33.7662 19.5778 34.1119 19.6511 34.407 19.7992C34.7019 19.9457 34.9334 20.1578 35.1031 20.4321H38.2623C38.053 19.344 37.5138 18.4849 36.6463 17.8567C35.7772 17.2284 34.6797 16.915 33.3524 16.915C32.2945 16.915 31.362 17.138 30.5532 17.5838C29.7443 18.0297 29.1179 18.6533 28.6738 19.4531C28.2299 20.2529 28.0078 21.1633 28.0078 22.1829C28.0078 23.2134 28.2299 24.1285 28.6738 24.9267C29.1179 25.7265 29.746 26.3485 30.5594 26.796C31.373 27.2419 32.3088 27.4648 33.3665 27.4648C34.234 27.4648 35.008 27.3104 35.6868 27.0018C36.3655 26.6931 36.9269 26.2987 37.371 25.8169C37.8151 25.3367 38.1512 24.8207 38.3812 24.272V21.4767H32.9019V23.5501Z" fill="white"/>
<path d="M46.2065 20.9201H42.6287V17.0195H41.4298H39.6947H38.6973L39.6947 18.0017V20.8812H38.6973L39.6947 21.8618V26.6089L38.8955 27.3947H39.6947H41.6296H42.6287V23.2306H46.2065V27.3947H49.1404V17.0195H46.2065V20.9201Z" fill="white"/>
<path d="M50.2344 17.3313V19.3159V20.0175L50.9496 19.3159H53.0192V27.3947H55.9531V19.3159H58.0529L58.7681 20.0175V19.3159V17.3313V17.0195H50.2344V17.3313Z" fill="white"/>
<path d="M19.619 17.0195H18.7245L19.619 17.9004V22.8923L15.7114 17.0195H12.7773V27.3947H13.9096H15.7114H16.6423L15.7114 26.4811V21.5968L19.619 27.3947H22.5529V17.0195H21.4571H19.619Z" fill="white"/>
<path d="M63.5345 16.855C64.767 16.855 65.7512 17.1391 66.4885 17.7074C67.2243 18.2757 67.6176 19.0732 67.6685 20.0999H64.466C64.4565 19.7843 64.3577 19.5473 64.1731 19.3887C63.9868 19.2302 63.7494 19.1517 63.4596 19.1517C63.2398 19.1517 63.0583 19.216 62.9182 19.3448C62.778 19.4735 62.708 19.6556 62.708 19.8926C62.708 20.0905 62.786 20.2616 62.9404 20.4044C63.0966 20.5473 63.2893 20.6713 63.5185 20.7749C63.7494 20.8785 64.0903 21.0104 64.5409 21.1674C65.213 21.395 65.7655 21.6195 66.2018 21.8424C66.6382 22.0653 67.014 22.3762 67.3293 22.7765C67.6448 23.1768 67.8023 23.6823 67.8023 24.2961C67.8023 24.9178 67.6448 25.4766 67.3293 25.9711C67.014 26.4656 66.5571 26.855 65.9615 27.1422C65.3659 27.4295 64.662 27.5724 63.8497 27.5724C62.6172 27.5724 61.6044 27.2835 60.8129 26.7058C60.0215 26.1281 59.5946 25.3008 59.5357 24.2239H62.6777C62.708 24.5896 62.8178 24.8565 63.0089 25.0245C63.1984 25.1925 63.4453 25.2757 63.7463 25.2757C64.0169 25.2757 64.2399 25.2097 64.415 25.0763C64.5903 24.9429 64.6778 24.7576 64.6778 24.5206C64.6778 24.2145 64.533 23.9774 64.2415 23.8094C63.9501 23.6415 63.4802 23.4531 62.829 23.2459C62.1378 23.0182 61.5789 22.7984 61.1521 22.5865C60.7252 22.3746 60.3559 22.0638 60.0404 21.6525C59.7251 21.2427 59.5676 20.7074 59.5676 20.0449C59.5676 19.373 59.7379 18.7985 60.0786 18.3181C60.4196 17.8393 60.8909 17.4766 61.4913 17.2286C62.0917 16.9774 62.7732 16.855 63.5345 16.855ZM63.5345 16.541C62.735 16.541 62.0056 16.6744 61.3671 16.935C60.7109 17.2051 60.1902 17.6085 59.8159 18.1344C59.4386 18.665 59.2475 19.3071 59.2475 20.0402C59.2475 20.7686 59.429 21.3746 59.7857 21.8377C60.1296 22.2835 60.5406 22.6289 61.0088 22.8612C61.4451 23.0795 62.0247 23.3071 62.7271 23.5378C63.3561 23.7388 63.81 23.9177 64.0806 24.0747C64.2733 24.1862 64.3594 24.3212 64.3594 24.5143C64.3594 24.654 64.3164 24.7482 64.2208 24.822C64.1013 24.913 63.9469 24.957 63.7463 24.957C63.5248 24.957 63.353 24.9005 63.2223 24.7859C63.0949 24.6744 63.0201 24.4751 62.9962 24.194L62.9723 23.9052H62.6792H59.5373H59.2012L59.2203 24.2364C59.2857 25.406 59.7587 26.3196 60.6265 26.9538C61.4706 27.5692 62.5551 27.8816 63.853 27.8816C64.7097 27.8816 65.4678 27.7262 66.1047 27.4201C66.7528 27.1093 67.2561 26.676 67.6033 26.1344C67.9504 25.5928 68.1257 24.9727 68.1257 24.2929C68.1257 23.6116 67.944 23.0355 67.5842 22.5818C67.2418 22.147 66.8277 21.8047 66.3516 21.5614C65.9057 21.3338 65.3324 21.1014 64.6476 20.8691C64.2129 20.7168 63.8768 20.5881 63.654 20.4876C63.4565 20.3981 63.2893 20.293 63.1601 20.1737C63.0694 20.0889 63.0281 20.0025 63.0281 19.8911C63.0281 19.6729 63.1093 19.5975 63.1364 19.5724C63.2175 19.4986 63.3211 19.4641 63.4611 19.4641C63.6746 19.4641 63.8403 19.5175 63.9677 19.6242C64.0839 19.7231 64.1428 19.8817 64.1507 20.1077L64.1604 20.4123H64.4693H67.6718H68.0062L67.9902 20.0826C67.9361 18.9649 67.4982 18.081 66.6891 17.4578C65.8945 16.8487 64.8355 16.541 63.5345 16.541Z" fill="#363C60"/>
</svg>
