<svg width="158" height="20" viewBox="0 0 158 20" fill="none" xmlns="http://www.w3.org/2000/svg">
<g id="img_koala_logo" clip-path="url(#clip0_379_39116)">
<g id="Group">
<path id="Vector" d="M156.081 8.8845C156.373 9.12074 156.639 9.39569 156.878 9.70524C157.331 10.2938 157.561 11.0412 157.551 11.923C157.551 12.8048 157.329 13.6093 156.89 14.3119C156.729 14.5705 156.542 14.8108 156.327 15.0308V15.0328C155.91 15.7028 153.842 18.2384 153.061 18.6233C152.294 19.0019 151.38 19.1935 150.349 19.1935C148.788 19.1935 147.482 18.8086 146.465 18.0469C145.42 17.2628 144.85 16.1346 144.772 14.6886L144.75 14.2793L146.173 12.4871C145.911 12.2692 145.672 12.0147 145.454 11.7255C145.261 11.4709 145.114 11.1776 145.007 10.8538L143.94 9.77447L143.189 9.01486H142.537V16.0388V16.4462L141.192 19.0651H140.809H137.262H136.879V18.6782V9.01486H134.918L134.167 9.77447L133.891 10.0535V16.0388V16.4462L132.957 19.0651H132.574H129.027H128.644V18.6782V13.8842H125.626V16.0388V16.4462L125.087 19.0651H124.704H123.494H121.156H120.19H119.264L119.514 16.4462L120.2 15.7517L120.951 14.9921L120.772 11.9556L120.23 11.4078V11.9637V12.0432L119.946 14.7945V14.8719L119.918 14.9432C119.624 15.6662 119.189 16.3505 118.625 16.9797C118.058 17.6131 117.331 18.1384 116.467 18.5439C115.599 18.9511 114.601 19.1569 113.499 19.1569C112.158 19.1569 110.954 18.8594 109.918 18.275C109.122 17.8249 108.46 17.2323 107.936 16.5093L108.23 19.0651H107.304H106.002H104H102.454H102.071L101.461 16.4462V16.0388V6.40197L101.107 6.04354L100.811 5.74418V5.77065V18.6782V19.0651H100.428H96.8808H96.6755L96.5625 18.892L92.5419 12.7519L92.2842 15.5134L92.5197 15.7517L93.2062 16.4462L94.209 19.0651H93.2828H92.1573H89.9768H88.6096H88.2272L86.9265 16.4462V16.0388V6.60766L83.1815 11.6094L86.2821 15.7965L86.7654 16.4482L88.0742 19.0671H87.307H83.0164H82.8192L81.2486 17.2628L79.4003 14.2304V18.6782V19.0651H79.0178H77.2763H75.4702H73.9723H73.0459L70.9863 16.4462L71.6728 15.7476L73.1287 14.2752V5.46314L73.044 5.37759H73.1287V4.2412L71.6728 2.7688L70.9863 2.07434H71.9589H73.5332H75.4299H77.2581H77.6607L79.1728 4.94178L81.0936 2.24336L81.2144 2.07434H81.4198H85.7143H86.5238L86.9265 3.08241V2.48164V2.07434H87.3291H91.054H91.2714L91.3902 2.25966L95.6103 8.78676V6.12501L95.5278 6.0415L94.8733 5.37963L93.9049 2.07636H93.911L95.5841 2.0784H96.019H98.3526H99.7438H99.77H100.147H100.743H101.872H104.212H105.597H106L106.394 5.38167V5.76861L106.368 7.87641C106.503 7.00886 106.765 6.2024 107.159 5.47127C107.757 4.36544 108.611 3.48973 109.7 2.87062C110.781 2.25558 112.044 1.94399 113.451 1.94399C115.215 1.94399 116.703 2.38389 117.87 3.25349C118.354 3.61192 118.759 4.03144 119.095 4.50189L119.27 2.0784H120.242H121.509H123.711H125.233H125.636V2.48572V7.17178H128.654V5.76861V5.38167L129.373 2.0784H129.776H133.501H133.903V2.48572V4.07828L134.485 2.0784H134.888H145.72H146.123V2.48572V2.89301V5.48553V5.90912C146.237 5.66883 146.358 5.43055 146.489 5.2167C146.608 4.74831 146.797 4.3186 147.063 3.93573C147.536 3.25349 148.195 2.73009 149.024 2.37981C149.831 2.04175 150.754 1.86865 151.764 1.86865C153.407 1.86865 154.746 2.26983 155.747 3.06002C156.77 3.86851 157.323 5.01509 157.392 6.46511L157.412 6.89278L156.081 8.8845Z" fill="#363C60"/>
<path id="Vector_2" d="M156.51 9.94403C156.111 9.42339 155.636 9.01913 155.084 8.72921C154.531 8.43929 153.83 8.14734 152.982 7.85128C152.411 7.64507 151.98 7.47561 151.688 7.34086C151.396 7.2061 151.152 7.0448 150.957 6.859C150.759 6.67321 150.662 6.45067 150.662 6.1934C150.662 5.8851 150.751 5.64827 150.929 5.48085C151.106 5.31342 151.333 5.22971 151.614 5.22971C151.98 5.22971 152.283 5.3318 152.516 5.53801C152.75 5.74423 152.875 6.05253 152.887 6.4629H156.939C156.877 5.12763 156.379 4.08839 155.446 3.35133C154.513 2.61223 153.268 2.24268 151.708 2.24268C150.745 2.24268 149.883 2.40398 149.121 2.72453C148.359 3.04508 147.765 3.51875 147.334 4.14147C146.903 4.7642 146.687 5.51351 146.687 6.38737C146.687 7.24897 146.886 7.94521 147.285 8.47808C147.684 9.01097 148.154 9.41523 148.692 9.69292C149.23 9.96854 149.937 10.2544 150.814 10.5504C151.638 10.8199 152.234 11.0649 152.601 11.2834C152.968 11.5019 153.153 11.8102 153.153 12.2083C153.153 12.5166 153.042 12.7575 152.821 12.9311C152.599 13.1046 152.317 13.1904 151.974 13.1904C151.594 13.1904 151.283 13.0822 151.041 12.8637C150.799 12.6452 150.66 12.2981 150.622 11.8224H146.646C146.723 13.223 147.261 14.299 148.263 15.0504C149.264 15.8017 150.546 16.1774 152.105 16.1774C153.133 16.1774 154.023 15.9916 154.777 15.618C155.531 15.2464 156.109 14.738 156.508 14.0948C156.907 13.4517 157.107 12.7269 157.107 11.9163C157.109 11.1221 156.909 10.4626 156.51 9.94403Z" fill="white"/>
<path id="Vector_3" d="M85.6093 2.45703H81.3114L77.1442 8.31677V2.45703H75.3146H73.4165H71.8428L73.4165 4.05365V14.4501L71.8428 16.0447H73.4165H75.3146H77.1442V10.089L81.3497 16.0447H85.8572L80.6826 9.04975L85.6093 2.45703Z" fill="white"/>
<path id="Vector_4" d="M105.505 2.45703H104.12H101.777H100.646L101.777 3.60245V16.0447H103.403H105.505H106.875L105.505 14.6583V2.45703Z" fill="white"/>
<path id="Vector_5" d="M112.792 11.0099H116.54C115.982 12.2043 115.049 12.8025 113.743 12.8025C112.639 12.8025 111.801 12.4983 111.222 11.8878C110.646 11.2773 110.358 10.3871 110.358 9.21928C110.358 8.17801 110.628 7.34906 111.166 6.73247C111.704 6.11587 112.443 5.80758 113.382 5.80758C113.89 5.80758 114.329 5.90352 114.704 6.09749C115.079 6.28941 115.373 6.56709 115.589 6.92642H119.603C119.337 5.5013 118.652 4.37631 117.55 3.5535C116.445 2.73071 115.051 2.32031 113.364 2.32031C112.02 2.32031 110.835 2.61227 109.808 3.19621C108.78 3.78014 107.984 4.59684 107.42 5.64423C106.856 6.69163 106.574 7.88399 106.574 9.21928C106.574 10.5689 106.856 11.7673 107.42 12.8127C107.984 13.8601 108.782 14.6747 109.816 15.2607C110.85 15.8447 112.038 16.1366 113.382 16.1366C114.485 16.1366 115.468 15.9345 116.33 15.5302C117.193 15.126 117.906 14.6094 118.47 13.9785C119.035 13.3497 119.462 12.6739 119.754 11.9552V8.29439H112.792V11.0099Z" fill="white"/>
<path id="Vector_6" d="M129.696 7.56541H125.15V2.45703H123.627H121.423H120.155L121.423 3.74332V7.51437H120.155L121.423 8.79862V15.0156L120.407 16.0447H121.423H123.881H125.15V10.5912H129.696V16.0447H133.424V2.45703H129.696V7.56541Z" fill="white"/>
<path id="Vector_7" d="M134.816 2.86539V5.46448V6.38326L135.725 5.46448H138.354V16.0447H142.082V5.46448H144.75L145.659 6.38326V5.46448V2.86539V2.45703H134.816V2.86539Z" fill="white"/>
<path id="Vector_8" d="M95.9155 2.45703H94.7789L95.9155 3.61061V10.1482L90.9505 2.45703H87.2227V16.0447H88.6613H90.9505H92.1334L90.9505 14.8482V8.45152L95.9155 16.0447H99.6432V2.45703H98.251H95.9155Z" fill="white"/>
<path id="Vector_9" d="M151.715 2.24125C153.281 2.24125 154.532 2.61338 155.469 3.35763C156.403 4.10189 156.903 5.14628 156.968 6.49087H152.899C152.887 6.07762 152.761 5.76718 152.527 5.55954C152.29 5.35189 151.988 5.24909 151.62 5.24909C151.341 5.24909 151.11 5.33338 150.932 5.50196C150.754 5.67056 150.665 5.90904 150.665 6.21949C150.665 6.47854 150.764 6.70264 150.96 6.88971C151.159 7.07681 151.404 7.23923 151.695 7.37492C151.988 7.51062 152.421 7.68332 152.994 7.88891C153.848 8.18702 154.55 8.48102 155.104 8.77296C155.659 9.0649 156.136 9.47197 156.537 9.99623C156.938 10.5205 157.138 11.1825 157.138 11.9864C157.138 12.8005 156.938 13.5324 156.537 14.1801C156.136 14.8277 155.556 15.3375 154.799 15.7138C154.042 16.09 153.148 16.2771 152.116 16.2771C150.55 16.2771 149.263 15.8988 148.257 15.1422C147.252 14.3856 146.709 13.3022 146.635 11.8918H150.627C150.665 12.3708 150.805 12.7203 151.048 12.9403C151.288 13.1603 151.602 13.2693 151.984 13.2693C152.328 13.2693 152.612 13.1829 152.834 13.0082C153.057 12.8334 153.168 12.5908 153.168 12.2804C153.168 11.8795 152.984 11.569 152.614 11.349C152.243 11.1291 151.646 10.8823 150.819 10.611C149.941 10.3128 149.231 10.025 148.688 9.74746C148.146 9.46991 147.677 9.06284 147.276 8.52418C146.875 7.98759 146.675 7.28651 146.675 6.41892C146.675 5.53896 146.891 4.78651 147.324 4.15739C147.758 3.53033 148.356 3.05541 149.119 2.73056C149.882 2.40162 150.748 2.24125 151.715 2.24125ZM151.715 1.83008C150.699 1.83008 149.773 2.00482 148.961 2.34612C148.128 2.69973 147.466 3.22811 146.991 3.91685C146.511 4.61175 146.268 5.45261 146.268 6.41274C146.268 7.36669 146.499 8.16029 146.952 8.76678C147.389 9.35068 147.911 9.80298 148.506 10.1073C149.061 10.393 149.797 10.6911 150.689 10.9934C151.489 11.2565 152.065 11.4909 152.409 11.6965C152.654 11.8425 152.763 12.0193 152.763 12.2722C152.763 12.4551 152.709 12.5785 152.587 12.6751C152.435 12.7944 152.239 12.8519 151.984 12.8519C151.703 12.8519 151.485 12.7779 151.319 12.6278C151.157 12.4818 151.062 12.2208 151.031 11.8527L151.001 11.4745H150.629H146.637H146.209L146.234 11.9082C146.317 13.4399 146.918 14.6365 148.021 15.4671C149.093 16.273 150.471 16.6821 152.12 16.6821C153.208 16.6821 154.172 16.4786 154.981 16.0777C155.804 15.6706 156.444 15.1032 156.885 14.3939C157.326 13.6846 157.549 12.8725 157.549 11.9823C157.549 11.09 157.318 10.3355 156.861 9.7413C156.426 9.1718 155.9 8.72361 155.295 8.40495C154.728 8.10683 154 7.80256 153.13 7.49828C152.577 7.29885 152.15 7.13027 151.867 6.99868C151.616 6.8815 151.404 6.74374 151.24 6.5875C151.124 6.47648 151.072 6.3634 151.072 6.21743C151.072 5.93165 151.175 5.83296 151.209 5.80007C151.312 5.70345 151.444 5.65822 151.622 5.65822C151.893 5.65822 152.104 5.72812 152.266 5.86793C152.413 5.99744 152.488 6.20509 152.498 6.50115L152.51 6.89999H152.903H156.972H157.397L157.377 6.46826C157.308 5.00443 156.751 3.84693 155.723 3.03074C154.714 2.23304 153.368 1.83008 151.715 1.83008Z" fill="#363C60"/>
<path id="Vector_10" d="M43.5495 5.9103L44.857 7.24334V18.6119V19.003H45.2406H52.6921H52.7343H53.116H53.2386H56.9582H57.2354L57.3219 18.7348L57.9224 16.8858H61.8831L62.4817 18.7348L62.57 19.003H62.8452H66.5829H67.1294L68.3344 16.3554L68.1397 15.8046L63.2851 2.17947L63.1887 1.90918H62.9074H58.6233H58.3422L58.2456 2.17743L55.3011 10.4131H54.0982H53.128L52.7626 12.6369H49.4706V2.31872V1.90918H49.0688H47.3214H45.351H43.8608H42.8906L42.8948 5.24278L43.5495 5.9103Z" fill="#363C60"/>
<path id="Vector_11" d="M45.313 16.032H53.2079V13.1409H49.0429V2.44434H47.2899H45.313H43.8179L45.313 3.96133V16.032Z" fill="white"/>
<path id="Vector_12" d="M62.925 2.44434H58.6272L55.5765 10.9236H54.0872L55.1775 12.0282L53.7388 16.0299H57.658L58.3814 13.8126H63.1367L63.8601 16.0299H67.7974L62.925 2.44434ZM59.3304 10.9236L60.7571 6.52981L62.2017 10.9236H59.3304Z" fill="white"/>
<path id="Vector_13" d="M27.2536 18.1231C26.5026 18.5467 25.687 18.8258 24.8293 18.948C24.6037 18.9916 24.1713 19.0456 23.6886 19.0438C23.363 19.0424 23.0147 19.016 22.6912 18.9438C21.8414 18.8196 21.0321 18.5427 20.287 18.1211C19.23 17.5223 18.3824 16.6813 17.7643 15.6182C17.3998 14.9909 17.1422 14.3046 16.9911 13.5735C16.812 13.3373 16.6448 13.0888 16.4918 12.8261L15.7489 12.3434L15.2455 12.0176L13.9026 9.16034L12.2013 11.4331L15.2959 15.6141L15.7791 16.2658L17.0879 18.899H16.3207H12.0301H11.8328L11.718 18.7361L8.41404 14.0623V18.5121V18.899H8.03148H6.28988H4.48386H2.98589H2.05972L0 16.2658L0.686567 15.5693L2.14227 14.0969V5.29907L2.05771 5.21352H2.14227V4.06492L0.686567 2.59252L0 1.89806H0.972467H2.54495H4.44159H6.26976H6.67244L7.97108 5.06487L10.1073 2.06708L10.2281 1.89806H10.4335H14.7281H15.5375L16.7254 4.8714C17.3495 3.92847 18.1609 3.17291 19.1455 2.62103C19.9267 2.18114 20.7763 1.89398 21.6683 1.76568L22.4495 0.533574L22.7877 0L23.1261 0.533574L23.9052 1.76161C24.8153 1.8899 25.673 2.17706 26.4603 2.62103C27.5636 3.24421 28.4494 4.12602 29.0917 5.24205C29.5548 6.05055 29.8547 6.94662 29.9837 7.91194L31.1957 8.70008L31.7232 9.04222L31.9588 10.313L34.8944 2.16686L34.9911 1.89806H35.2728H39.5676H39.8493L39.946 2.16686L44.8125 15.72L45.0078 16.2658L44.9253 18.899H44.3776H40.6305H40.3528L40.2661 18.6323L39.6661 16.7933H35.6957L35.0958 18.6323L35.0091 18.899H34.7313H31.0024H30.4547L29.8145 16.2658L30.0119 15.72L30.7649 13.6305L30.5635 13.4269C30.4206 14.213 30.1548 14.9482 29.7683 15.6182C29.1582 16.6813 28.3106 17.5244 27.2536 18.1231Z" fill="#363C60"/>
<path id="Vector_14" d="M14.6221 2.21777H10.324L6.15699 8.07545V2.21777H4.32735H2.42921H0.855469L2.42921 3.81236V14.2088L0.855469 15.8054H2.42921H4.32735H6.15699V9.84971L10.3623 15.8054H14.8699L9.69537 8.80843L14.6221 2.21777Z" fill="white"/>
<path id="Vector_15" d="M31.7316 11.8036L30.293 15.8054H34.2122L34.9356 13.5881H39.6909L40.4143 15.8054H44.3516L39.4834 2.21777H35.1853L32.1346 10.697H30.6456L31.7316 11.8036ZM37.3112 6.30325L38.7559 10.697H35.8846L37.3112 6.30325Z" fill="white"/>
<path id="Vector_16" d="M29.5177 8.07919C29.4109 7.09304 29.1248 6.18855 28.6533 5.36778C28.0449 4.30813 27.2166 3.48328 26.1708 2.89118C25.3708 2.43792 24.5043 2.16026 23.5734 2.05408L22.6909 0.661621L21.8062 2.05611C20.8915 2.16434 20.0351 2.442 19.2371 2.88914C18.1853 3.48124 17.351 4.30609 16.7365 5.36574C16.261 6.18651 15.9708 7.091 15.864 8.07509L14.4897 8.96938L15.866 9.86365C15.9748 10.8416 16.265 11.7379 16.7365 12.5526C17.351 13.6122 18.1853 14.4412 19.2371 15.0394C20.0351 15.4927 20.8915 15.7724 21.8043 15.8826L22.6889 17.2771L23.5715 15.8847C24.4923 15.7765 25.3568 15.4967 26.1588 15.0394C27.2105 14.4412 28.0407 13.6122 28.6514 12.5526C29.1189 11.7379 29.405 10.8416 29.5137 9.86365L30.8881 8.96938L29.5177 8.07919ZM24.9537 11.4868C24.4017 12.1157 23.65 12.4321 22.699 12.4321C21.7357 12.4321 20.9802 12.1218 20.4361 11.497C19.89 10.8743 19.6179 10.029 19.6179 8.96324C19.6179 7.88318 19.89 7.03382 20.4361 6.40906C20.9802 5.78633 21.7357 5.47396 22.699 5.47396C23.65 5.47396 24.4017 5.78633 24.9537 6.40906C25.5059 7.03178 25.7819 7.88318 25.7819 8.96324C25.7819 10.0168 25.5059 10.858 24.9537 11.4868Z" fill="#F17237"/>
</g>
</g>
<defs>
<clipPath id="clip0_379_39116">
<rect width="158" height="20" fill="white"/>
</clipPath>
</defs>
</svg>
