<svg width="20" height="20" viewBox="0 0 20 20" fill="none" xmlns="http://www.w3.org/2000/svg">
<g id="Social Icons" clip-path="url(#clip0_91_83767)">
<path id="Vector" d="M20 9.85665C20 12.5061 19.556 14.6552 19.0081 14.6552C18.4602 14.6552 18.0164 12.5067 18.0164 9.85665C18.0164 7.20664 18.4604 5.05811 19.0081 5.05811C19.5558 5.05811 20 7.20645 20 9.85665Z" fill="white"/>
<path id="Vector_2" d="M17.469 9.85622C17.469 12.814 16.2063 15.2127 14.6487 15.2127C13.091 15.2127 11.8283 12.814 11.8283 9.85622C11.8283 6.89845 13.0908 4.49976 14.6485 4.49976C16.2061 4.49976 17.4688 6.89768 17.4688 9.85622" fill="white"/>
<path id="Vector_3" d="M11.2812 9.85626C11.2812 12.9985 8.75578 15.5458 5.6407 15.5458C2.52561 15.5458 0 12.9979 0 9.85626C0 6.71457 2.52542 4.1665 5.6407 4.1665C8.75598 4.1665 11.2812 6.71399 11.2812 9.85626Z" fill="white"/>
</g>
<defs>
<clipPath id="clip0_91_83767">
<rect width="20" height="20" fill="white"/>
</clipPath>
</defs>
</svg>
